<svg xmlns="http://www.w3.org/2000/svg" xmlns:xlink="http://www.w3.org/1999/xlink" width="466" zoomAndPan="magnify" viewBox="0 0 349.5 374.999991" height="500" preserveAspectRatio="xMidYMid meet" version="1.0"><defs><clipPath id="8f52c63144"><path d="M 181 207 L 349 207 L 349 374.730469 L 181 374.730469 Z M 181 207 " clip-rule="nonzero"/></clipPath><clipPath id="8706df72a5"><path d="M 71 0.269531 L 214 0.269531 L 214 143 L 71 143 Z M 71 0.269531 " clip-rule="nonzero"/></clipPath></defs><path fill="#f7cca7" d="M 0 310.894531 C 0 210.710938 63.75 142.453125 142.390625 142.453125 C 221.027344 142.453125 284.777344 210.710938 284.777344 310.894531 C 284.777344 310.894531 220.054688 349.761719 142.390625 349.761719 C 71.195312 349.761719 0 310.894531 0 310.894531 " fill-opacity="1" fill-rule="nonzero"/><g clip-path="url(#8f52c63144)"><path fill="#96a0a5" d="M 265.359375 310.894531 C 254.636719 310.894531 245.945312 302.191406 245.945312 291.457031 C 245.945312 280.722656 254.636719 272.023438 265.359375 272.023438 C 276.082031 272.023438 284.777344 280.722656 284.777344 291.457031 C 284.777344 302.191406 276.082031 310.894531 265.359375 310.894531 Z M 349.5 310.894531 L 349.5 272.023438 L 327.113281 272.023438 C 325.96875 268.363281 324.492188 264.851562 322.746094 261.503906 L 338.585938 245.644531 L 311.125 218.160156 L 295.285156 234.019531 C 291.941406 232.269531 288.433594 230.792969 284.777344 229.644531 L 284.777344 207.238281 L 245.945312 207.238281 L 245.945312 229.644531 C 242.289062 230.792969 238.78125 232.269531 235.4375 234.019531 L 219.597656 218.160156 L 192.132812 245.644531 L 207.976562 261.503906 C 206.230469 264.851562 204.753906 268.363281 203.605469 272.023438 L 181.222656 272.023438 L 181.222656 310.894531 L 203.605469 310.894531 C 204.753906 314.550781 206.230469 318.0625 207.976562 321.410156 L 192.132812 337.265625 L 219.597656 364.753906 L 235.4375 348.898438 C 238.78125 350.644531 242.289062 352.125 245.945312 353.273438 L 245.945312 375.675781 L 284.777344 375.675781 L 284.777344 353.273438 C 288.433594 352.125 291.941406 350.644531 295.285156 348.898438 L 311.125 364.753906 L 338.585938 337.265625 L 322.746094 321.410156 C 324.492188 318.0625 325.96875 314.550781 327.113281 310.894531 L 349.5 310.894531 " fill-opacity="1" fill-rule="nonzero"/></g><g clip-path="url(#8706df72a5)"><path fill="#f7cca7" d="M 213.582031 71.191406 C 213.582031 110.546875 181.707031 142.453125 142.390625 142.453125 C 103.070312 142.453125 71.195312 110.546875 71.195312 71.191406 C 71.195312 31.832031 103.070312 -0.0742188 142.390625 -0.0742188 C 181.707031 -0.0742188 213.582031 31.832031 213.582031 71.191406 " fill-opacity="1" fill-rule="nonzero"/></g></svg>