<svg xmlns="http://www.w3.org/2000/svg" xmlns:xlink="http://www.w3.org/1999/xlink" width="466" zoomAndPan="magnify" viewBox="0 0 349.5 374.999991" height="500" preserveAspectRatio="xMidYMid meet" version="1.0"><defs><clipPath id="219c8ffe0d"><path d="M 2 0.269531 L 348 0.269531 L 348 374.730469 L 2 374.730469 Z M 2 0.269531 " clip-rule="nonzero"/></clipPath></defs><g clip-path="url(#219c8ffe0d)"><path fill="#100f0d" d="M 291.5625 276.273438 C 303.015625 276.273438 314.039062 280.835938 322.128906 288.925781 C 330.253906 297.046875 334.816406 308.035156 334.816406 319.519531 C 334.816406 330.972656 330.253906 341.960938 322.128906 350.050781 C 314.039062 358.171875 303.015625 362.734375 291.5625 362.734375 C 280.074219 362.734375 269.117188 358.171875 260.992188 350.050781 C 252.867188 341.960938 248.339844 330.972656 248.339844 319.519531 C 248.339844 308.035156 252.867188 297.046875 260.992188 288.925781 C 269.117188 280.835938 280.074219 276.273438 291.5625 276.273438 Z M 163.996094 207.792969 L 262.757812 207.792969 C 263.890625 207.792969 264.753906 208.027344 265.355469 208.625 C 265.953125 209.226562 266.15625 210.125 266.15625 211.253906 L 266.15625 225.902344 C 266.15625 227.070312 265.921875 227.933594 265.355469 228.535156 C 264.753906 229.101562 263.890625 229.367188 262.757812 229.367188 L 163.628906 229.367188 L 163.628906 229.300781 C 162.695312 229.265625 161.898438 229.035156 161.398438 228.535156 C 160.796875 227.933594 160.597656 227.070312 160.597656 225.902344 L 160.597656 211.253906 C 160.597656 210.089844 160.796875 209.191406 161.398438 208.625 C 161.996094 208.058594 162.863281 207.792969 163.996094 207.792969 Z M 111.183594 180.328125 C 113.546875 180.328125 115.878906 181.191406 117.675781 182.957031 C 121.273438 186.484375 121.273438 192.179688 117.675781 195.707031 L 103.957031 209.191406 C 105.222656 212.054688 105.957031 215.152344 105.957031 218.445312 C 105.957031 232.261719 93.566406 243.183594 78.785156 243.183594 C 64 243.183594 51.613281 232.261719 51.613281 218.445312 C 51.613281 215.449219 52.3125 212.621094 53.378906 209.992188 L 52.511719 209.125 C 48.914062 205.597656 48.914062 199.902344 52.511719 196.375 C 56.109375 192.84375 61.902344 192.878906 65.464844 196.375 L 65.929688 196.839844 C 69.792969 194.910156 74.121094 193.742188 78.785156 193.742188 C 83.144531 193.742188 87.242188 194.777344 90.9375 196.472656 L 104.691406 182.957031 C 106.488281 181.191406 108.851562 180.328125 111.183594 180.328125 Z M 163.996094 141.34375 L 262.757812 141.34375 C 263.890625 141.34375 264.753906 141.574219 265.355469 142.140625 C 265.953125 142.742188 266.15625 143.640625 266.15625 144.738281 L 266.15625 159.453125 C 266.15625 160.585938 265.921875 161.449219 265.355469 162.050781 C 264.753906 162.648438 263.890625 162.847656 262.757812 162.847656 L 163.628906 162.847656 L 163.628906 162.816406 C 162.695312 162.75 161.898438 162.550781 161.398438 162.050781 C 160.796875 161.449219 160.597656 160.585938 160.597656 159.453125 L 160.597656 144.738281 C 160.597656 143.605469 160.796875 142.742188 161.398438 142.140625 C 161.996094 141.542969 162.863281 141.34375 163.996094 141.34375 Z M 109.21875 116.507812 C 111.582031 116.507812 113.914062 117.371094 115.710938 119.136719 C 119.308594 122.664062 119.308594 128.359375 115.710938 131.886719 L 101.992188 145.371094 C 103.257812 148.234375 104.023438 151.328125 104.023438 154.660156 C 104.023438 168.476562 91.605469 179.363281 76.820312 179.363281 C 62.035156 179.363281 49.648438 168.476562 49.648438 154.660156 C 49.648438 151.628906 50.347656 148.800781 51.414062 146.167969 L 50.546875 145.304688 C 46.984375 141.808594 46.984375 136.082031 50.546875 132.554688 C 54.144531 129.058594 59.9375 129.058594 63.5 132.554688 L 63.964844 133.019531 C 67.828125 131.121094 72.15625 129.921875 76.820312 129.921875 C 81.179688 129.921875 85.277344 130.957031 88.972656 132.652344 L 102.726562 119.136719 C 104.523438 117.371094 106.855469 116.507812 109.21875 116.507812 Z M 106.6875 0.0859375 C 97.066406 0.0859375 89.273438 7.875 89.273438 17.496094 L 89.273438 34.941406 L 36.996094 34.941406 C 17.746094 34.941406 2.128906 50.523438 2.128906 69.765625 L 2.128906 313.695312 C 2.128906 332.9375 17.746094 348.550781 36.996094 348.550781 L 244.242188 348.550781 C 246.507812 352.246094 249.140625 355.710938 252.269531 358.804688 C 262.691406 369.226562 276.808594 375.085938 291.5625 375.085938 C 306.3125 375.085938 320.464844 369.226562 330.886719 358.804688 C 341.308594 348.386719 347.167969 334.234375 347.167969 319.519531 C 347.167969 304.773438 341.308594 290.589844 330.886719 280.167969 C 326.457031 275.742188 321.328125 272.214844 315.800781 269.515625 L 315.800781 69.765625 C 315.800781 50.523438 300.21875 34.941406 280.972656 34.941406 L 228.695312 34.941406 L 228.695312 17.496094 C 228.695312 7.875 220.867188 0.0859375 211.246094 0.0859375 C 201.621094 0.0859375 193.828125 7.875 193.828125 17.496094 L 193.828125 34.941406 L 124.101562 34.941406 L 124.101562 17.496094 C 124.101562 7.875 116.3125 0.0859375 106.6875 0.0859375 " fill-opacity="1" fill-rule="nonzero"/></g><path fill="#100f0d" d="M 290.996094 289.359375 C 286.632812 289.359375 283.136719 292.855469 283.136719 297.214844 L 283.136719 312.730469 L 267.386719 312.730469 C 263.058594 312.730469 259.527344 316.226562 259.527344 320.585938 C 259.527344 324.914062 263.058594 328.476562 267.386719 328.476562 L 283.136719 328.476562 L 283.136719 344.355469 C 283.136719 348.71875 286.632812 352.246094 290.996094 352.246094 C 295.324219 352.246094 298.851562 348.71875 298.851562 344.355469 L 298.851562 328.476562 L 314.570312 328.476562 C 318.898438 328.476562 322.429688 324.914062 322.429688 320.585938 C 322.429688 316.226562 318.898438 312.730469 314.570312 312.730469 L 298.851562 312.730469 L 298.851562 297.214844 C 298.851562 292.855469 295.324219 289.359375 290.996094 289.359375 " fill-opacity="1" fill-rule="nonzero"/></svg>