<svg xmlns="http://www.w3.org/2000/svg" xmlns:xlink="http://www.w3.org/1999/xlink" width="500" zoomAndPan="magnify" viewBox="0 0 375 333.749992" height="445" preserveAspectRatio="xMidYMid meet" version="1.0"><defs><clipPath id="8b145138f1"><path d="M 0.140625 97 L 312 97 L 312 313 L 0.140625 313 Z M 0.140625 97 " clip-rule="nonzero"/></clipPath><clipPath id="6230cdd0d7"><path d="M 0.140625 26 L 312 26 L 312 102 L 0.140625 102 Z M 0.140625 26 " clip-rule="nonzero"/></clipPath><clipPath id="0c9d18b2a9"><path d="M 221 180 L 374.109375 180 L 374.109375 333.5 L 221 333.5 Z M 221 180 " clip-rule="nonzero"/></clipPath></defs><g clip-path="url(#8b145138f1)"><path fill="#f7f7f7" d="M 311.371094 97.5625 L 311.371094 272.648438 C 311.371094 294.753906 293.253906 312.851562 271.125 312.851562 L 40.378906 312.851562 C 18.25 312.851562 0.136719 294.753906 0.136719 272.648438 L 0.136719 99.917969 " fill-opacity="1" fill-rule="nonzero"/></g><g clip-path="url(#6230cdd0d7)"><path fill="#d40000" d="M 0.136719 101.984375 L 0.136719 56.328125 C 0.136719 40.011719 15.742188 26.699219 34.816406 26.699219 L 276.691406 26.699219 C 295.765625 26.699219 311.371094 40.039062 311.371094 56.328125 L 311.371094 101.984375 " fill-opacity="1" fill-rule="nonzero"/></g><path fill="#ffcc33" d="M 64.214844 64.082031 C 57.691406 64.082031 52.359375 58.757812 52.359375 52.242188 L 52.359375 11.882812 C 52.359375 5.367188 57.691406 0.0429688 64.214844 0.0429688 C 70.734375 0.0429688 76.066406 5.367188 76.066406 11.882812 L 76.066406 52.265625 C 76.066406 58.757812 70.734375 64.082031 64.214844 64.082031 Z M 64.214844 64.082031 " fill-opacity="1" fill-rule="nonzero"/><path fill="#ffcc33" d="M 125.007812 64.082031 C 118.484375 64.082031 113.152344 58.757812 113.152344 52.242188 L 113.152344 11.882812 C 113.152344 5.367188 118.484375 0.0429688 125.007812 0.0429688 C 131.527344 0.0429688 136.859375 5.367188 136.859375 11.882812 L 136.859375 52.265625 C 136.859375 58.757812 131.527344 64.082031 125.007812 64.082031 Z M 125.007812 64.082031 " fill-opacity="1" fill-rule="nonzero"/><path fill="#ffcc33" d="M 185.824219 64.082031 C 179.304688 64.082031 173.972656 58.757812 173.972656 52.242188 L 173.972656 11.882812 C 173.972656 5.367188 179.304688 0.0429688 185.824219 0.0429688 C 192.347656 0.0429688 197.679688 5.367188 197.679688 11.882812 L 197.679688 52.265625 C 197.679688 58.757812 192.320312 64.082031 185.824219 64.082031 Z M 185.824219 64.082031 " fill-opacity="1" fill-rule="nonzero"/><path fill="#ffcc33" d="M 246.617188 64.082031 C 240.097656 64.082031 234.765625 58.757812 234.765625 52.242188 L 234.765625 11.882812 C 234.765625 5.367188 240.097656 0.0429688 246.617188 0.0429688 C 253.140625 0.0429688 258.472656 5.367188 258.472656 11.882812 L 258.472656 52.265625 C 258.472656 58.757812 253.140625 64.082031 246.617188 64.082031 Z M 246.617188 64.082031 " fill-opacity="1" fill-rule="nonzero"/><path fill="#b8c8ff" d="M 50.445312 141.515625 L 104.25 141.515625 L 104.25 195.265625 L 50.445312 195.265625 Z M 50.445312 141.515625 " fill-opacity="1" fill-rule="nonzero"/><path fill="#b8c8ff" d="M 128.835938 141.515625 L 182.640625 141.515625 L 182.640625 195.265625 L 128.835938 195.265625 Z M 128.835938 141.515625 " fill-opacity="1" fill-rule="nonzero"/><path fill="#b8c8ff" d="M 207.226562 141.515625 L 261.035156 141.515625 L 261.035156 195.265625 L 207.226562 195.265625 Z M 207.226562 141.515625 " fill-opacity="1" fill-rule="nonzero"/><path fill="#b8c8ff" d="M 50.445312 210.574219 L 104.25 210.574219 L 104.25 264.324219 L 50.445312 264.324219 Z M 50.445312 210.574219 " fill-opacity="1" fill-rule="nonzero"/><path fill="#b8c8ff" d="M 129.355469 210.574219 L 183.160156 210.574219 L 183.160156 264.324219 L 129.355469 264.324219 Z M 129.355469 210.574219 " fill-opacity="1" fill-rule="nonzero"/><path fill="#b8c8ff" d="M 207.226562 210.574219 L 261.035156 210.574219 L 261.035156 264.324219 L 207.226562 264.324219 Z M 207.226562 210.574219 " fill-opacity="1" fill-rule="nonzero"/><path fill="#ffffff" d="M 368.203125 256.878906 C 368.203125 258.023438 368.175781 259.167969 368.117188 260.308594 C 368.0625 261.453125 367.976562 262.59375 367.867188 263.734375 C 367.753906 264.871094 367.613281 266.007812 367.445312 267.140625 C 367.277344 268.273438 367.082031 269.398438 366.859375 270.523438 C 366.632812 271.644531 366.382812 272.761719 366.105469 273.871094 C 365.828125 274.980469 365.519531 276.085938 365.1875 277.179688 C 364.855469 278.273438 364.496094 279.359375 364.109375 280.4375 C 363.726562 281.515625 363.3125 282.585938 362.875 283.640625 C 362.4375 284.699219 361.972656 285.746094 361.480469 286.78125 C 360.992188 287.8125 360.476562 288.835938 359.9375 289.847656 C 359.398438 290.855469 358.832031 291.851562 358.242188 292.832031 C 357.652344 293.8125 357.042969 294.78125 356.40625 295.734375 C 355.769531 296.683594 355.109375 297.621094 354.425781 298.539062 C 353.742188 299.457031 353.039062 300.359375 352.3125 301.246094 C 351.585938 302.128906 350.835938 302.996094 350.066406 303.84375 C 349.296875 304.691406 348.507812 305.519531 347.699219 306.332031 C 346.890625 307.140625 346.058594 307.929688 345.210938 308.695312 C 344.363281 309.464844 343.496094 310.214844 342.609375 310.9375 C 341.722656 311.664062 340.820312 312.371094 339.898438 313.050781 C 338.980469 313.734375 338.042969 314.390625 337.089844 315.027344 C 336.136719 315.664062 335.171875 316.277344 334.1875 316.863281 C 333.203125 317.453125 332.207031 318.015625 331.199219 318.554688 C 330.1875 319.09375 329.164062 319.609375 328.128906 320.097656 C 327.09375 320.589844 326.046875 321.050781 324.988281 321.492188 C 323.929688 321.929688 322.859375 322.339844 321.78125 322.726562 C 320.703125 323.113281 319.617188 323.46875 318.519531 323.800781 C 317.421875 324.136719 316.320312 324.441406 315.207031 324.71875 C 314.097656 324.996094 312.976562 325.246094 311.855469 325.46875 C 310.730469 325.695312 309.601562 325.890625 308.46875 326.058594 C 307.335938 326.226562 306.199219 326.363281 305.058594 326.476562 C 303.917969 326.589844 302.777344 326.671875 301.632812 326.730469 C 300.488281 326.785156 299.34375 326.8125 298.195312 326.8125 C 297.050781 326.8125 295.90625 326.785156 294.761719 326.730469 C 293.617188 326.671875 292.476562 326.589844 291.335938 326.476562 C 290.195312 326.363281 289.058594 326.226562 287.925781 326.058594 C 286.792969 325.890625 285.664062 325.695312 284.539062 325.46875 C 283.414062 325.246094 282.296875 324.996094 281.1875 324.71875 C 280.074219 324.441406 278.972656 324.136719 277.875 323.800781 C 276.777344 323.46875 275.691406 323.113281 274.613281 322.726562 C 273.535156 322.339844 272.464844 321.929688 271.40625 321.492188 C 270.347656 321.050781 269.300781 320.589844 268.265625 320.097656 C 267.230469 319.609375 266.207031 319.097656 265.195312 318.554688 C 264.1875 318.015625 263.191406 317.453125 262.207031 316.863281 C 261.222656 316.277344 260.257812 315.664062 259.304688 315.027344 C 258.351562 314.390625 257.414062 313.734375 256.496094 313.050781 C 255.574219 312.371094 254.671875 311.664062 253.785156 310.9375 C 252.898438 310.214844 252.03125 309.464844 251.183594 308.699219 C 250.335938 307.929688 249.503906 307.140625 248.695312 306.332031 C 247.886719 305.519531 247.09375 304.691406 246.328125 303.84375 C 245.558594 302.996094 244.808594 302.128906 244.082031 301.246094 C 243.355469 300.359375 242.652344 299.457031 241.96875 298.539062 C 241.285156 297.621094 240.625 296.683594 239.988281 295.734375 C 239.351562 294.78125 238.738281 293.8125 238.152344 292.832031 C 237.5625 291.851562 236.996094 290.855469 236.457031 289.847656 C 235.917969 288.835938 235.402344 287.8125 234.914062 286.78125 C 234.421875 285.746094 233.957031 284.699219 233.519531 283.640625 C 233.082031 282.585938 232.667969 281.515625 232.285156 280.4375 C 231.898438 279.359375 231.539062 278.273438 231.207031 277.179688 C 230.875 276.085938 230.566406 274.980469 230.289062 273.871094 C 230.011719 272.761719 229.761719 271.644531 229.535156 270.523438 C 229.3125 269.398438 229.117188 268.273438 228.949219 267.140625 C 228.78125 266.007812 228.640625 264.871094 228.527344 263.734375 C 228.417969 262.59375 228.332031 261.453125 228.277344 260.308594 C 228.21875 259.167969 228.191406 258.023438 228.191406 256.878906 C 228.191406 255.734375 228.21875 254.589844 228.277344 253.445312 C 228.332031 252.304688 228.417969 251.164062 228.527344 250.023438 C 228.640625 248.882812 228.78125 247.75 228.949219 246.617188 C 229.117188 245.484375 229.3125 244.355469 229.535156 243.234375 C 229.761719 242.113281 230.011719 240.996094 230.289062 239.886719 C 230.566406 238.773438 230.875 237.671875 231.207031 236.578125 C 231.539062 235.480469 231.898438 234.394531 232.285156 233.316406 C 232.667969 232.238281 233.082031 231.171875 233.519531 230.113281 C 233.957031 229.058594 234.421875 228.011719 234.914062 226.976562 C 235.402344 225.941406 235.917969 224.921875 236.457031 223.910156 C 236.996094 222.902344 237.5625 221.90625 238.152344 220.925781 C 238.738281 219.941406 239.351562 218.976562 239.988281 218.023438 C 240.625 217.070312 241.285156 216.136719 241.96875 215.21875 C 242.652344 214.296875 243.355469 213.394531 244.082031 212.511719 C 244.808594 211.625 245.558594 210.761719 246.328125 209.910156 C 247.09375 209.0625 247.886719 208.234375 248.695312 207.425781 C 249.503906 206.617188 250.335938 205.828125 251.183594 205.058594 C 252.03125 204.289062 252.898438 203.542969 253.785156 202.816406 C 254.671875 202.089844 255.574219 201.386719 256.496094 200.707031 C 257.414062 200.023438 258.351562 199.363281 259.304688 198.730469 C 260.257812 198.09375 261.222656 197.480469 262.207031 196.890625 C 263.191406 196.304688 264.1875 195.738281 265.195312 195.199219 C 266.207031 194.660156 267.230469 194.144531 268.265625 193.65625 C 269.300781 193.167969 270.347656 192.703125 271.40625 192.265625 C 272.464844 191.828125 273.535156 191.417969 274.613281 191.03125 C 275.691406 190.644531 276.777344 190.285156 277.875 189.953125 C 278.972656 189.621094 280.074219 189.316406 281.1875 189.039062 C 282.296875 188.761719 283.417969 188.507812 284.539062 188.285156 C 285.664062 188.0625 286.792969 187.867188 287.925781 187.699219 C 289.058594 187.53125 290.195312 187.390625 291.335938 187.277344 C 292.476562 187.167969 293.617188 187.082031 294.761719 187.027344 C 295.90625 186.96875 297.050781 186.941406 298.195312 186.941406 C 299.34375 186.941406 300.488281 186.96875 301.632812 187.027344 C 302.777344 187.082031 303.917969 187.167969 305.058594 187.277344 C 306.199219 187.390625 307.335938 187.53125 308.46875 187.699219 C 309.601562 187.867188 310.730469 188.0625 311.855469 188.285156 C 312.976562 188.507812 314.097656 188.761719 315.207031 189.039062 C 316.320312 189.316406 317.421875 189.621094 318.519531 189.953125 C 319.613281 190.285156 320.703125 190.644531 321.78125 191.03125 C 322.859375 191.414062 323.929688 191.828125 324.988281 192.265625 C 326.046875 192.703125 327.09375 193.167969 328.128906 193.65625 C 329.164062 194.144531 330.1875 194.660156 331.199219 195.199219 C 332.207031 195.738281 333.203125 196.304688 334.1875 196.890625 C 335.171875 197.480469 336.136719 198.09375 337.089844 198.730469 C 338.042969 199.363281 338.980469 200.023438 339.898438 200.707031 C 340.820312 201.386719 341.722656 202.089844 342.609375 202.816406 C 343.492188 203.542969 344.363281 204.289062 345.210938 205.058594 C 346.058594 205.828125 346.890625 206.617188 347.699219 207.425781 C 348.507812 208.234375 349.296875 209.0625 350.066406 209.910156 C 350.835938 210.761719 351.585938 211.625 352.3125 212.511719 C 353.039062 213.394531 353.742188 214.296875 354.425781 215.21875 C 355.109375 216.136719 355.769531 217.070312 356.40625 218.023438 C 357.042969 218.976562 357.652344 219.941406 358.242188 220.925781 C 358.832031 221.90625 359.398438 222.902344 359.9375 223.910156 C 360.476562 224.921875 360.992188 225.941406 361.480469 226.976562 C 361.972656 228.011719 362.4375 229.058594 362.875 230.113281 C 363.3125 231.171875 363.726562 232.238281 364.109375 233.316406 C 364.496094 234.394531 364.855469 235.480469 365.1875 236.578125 C 365.519531 237.671875 365.828125 238.773438 366.105469 239.886719 C 366.382812 240.996094 366.632812 242.113281 366.859375 243.234375 C 367.082031 244.355469 367.277344 245.484375 367.445312 246.617188 C 367.613281 247.75 367.753906 248.882812 367.867188 250.023438 C 367.976562 251.164062 368.0625 252.304688 368.117188 253.445312 C 368.175781 254.589844 368.203125 255.734375 368.203125 256.878906 Z M 368.203125 256.878906 " fill-opacity="1" fill-rule="nonzero"/><g clip-path="url(#0c9d18b2a9)"><path fill="#657fd2" d="M 298.195312 333.457031 C 287.84375 333.457031 277.804688 331.441406 268.355469 327.433594 C 259.222656 323.582031 251.042969 318.050781 244.003906 311.015625 C 236.964844 303.984375 231.453125 295.789062 227.570312 286.6875 C 223.558594 277.25 221.539062 267.21875 221.539062 256.878906 C 221.539062 246.535156 223.558594 236.503906 227.570312 227.066406 C 231.425781 217.941406 236.964844 209.773438 244.003906 202.738281 C 251.042969 195.707031 259.246094 190.199219 268.355469 186.320312 C 277.804688 182.3125 287.84375 180.296875 298.195312 180.296875 C 308.550781 180.296875 318.589844 182.3125 328.035156 186.320312 C 337.171875 190.175781 345.351562 195.707031 352.390625 202.738281 C 359.429688 209.773438 364.941406 217.96875 368.824219 227.066406 C 372.835938 236.503906 374.855469 246.535156 374.855469 256.878906 C 374.855469 267.21875 372.835938 277.25 368.824219 286.6875 C 364.96875 295.816406 359.429688 303.984375 352.390625 311.015625 C 345.351562 318.050781 337.148438 323.554688 328.035156 327.433594 C 318.566406 331.441406 308.523438 333.457031 298.195312 333.457031 Z M 298.195312 193.5625 C 289.632812 193.5625 281.347656 195.242188 273.535156 198.523438 C 265.976562 201.707031 259.222656 206.28125 253.398438 212.097656 C 247.574219 217.914062 242.996094 224.691406 239.8125 232.214844 C 236.5 240.019531 234.84375 248.292969 234.84375 256.851562 C 234.84375 265.410156 236.523438 273.683594 239.8125 281.492188 C 242.996094 289.039062 247.574219 295.789062 253.398438 301.605469 C 259.222656 307.421875 266.003906 312 273.535156 315.179688 C 281.347656 318.488281 289.632812 320.144531 298.195312 320.144531 C 306.761719 320.144531 315.046875 318.464844 322.859375 315.179688 C 330.417969 312 337.171875 307.421875 342.996094 301.605469 C 348.820312 295.789062 353.398438 289.015625 356.582031 281.492188 C 359.894531 273.683594 361.550781 265.410156 361.550781 256.851562 C 361.550781 248.292969 359.871094 240.019531 356.582031 232.214844 C 353.398438 224.664062 348.820312 217.914062 342.996094 212.097656 C 337.171875 206.28125 330.390625 201.707031 322.859375 198.523438 C 315.046875 195.242188 306.738281 193.5625 298.195312 193.5625 Z M 298.195312 193.5625 " fill-opacity="1" fill-rule="nonzero"/></g><path fill="#000000" d="M 307.796875 262.152344 C 307.824219 262.125 307.824219 262.125 307.796875 262.152344 C 307.796875 262.125 307.796875 262.125 307.796875 262.101562 C 307.824219 261.867188 307.824219 261.636719 307.824219 261.402344 L 307.824219 215.199219 C 307.824219 211.789062 305.054688 209.023438 301.640625 209.023438 C 298.222656 209.023438 295.453125 211.789062 295.453125 215.199219 L 295.453125 258.171875 L 271.671875 273.761719 C 270.296875 274.664062 269.339844 276.0625 269.003906 277.691406 C 268.667969 279.320312 268.976562 280.972656 269.882812 282.34375 C 271.023438 284.101562 272.964844 285.136719 275.058594 285.136719 C 276.25 285.136719 277.441406 284.773438 278.476562 284.128906 L 305.054688 266.703125 C 306.011719 266.082031 306.738281 265.230469 307.230469 264.222656 C 307.539062 263.546875 307.746094 262.851562 307.796875 262.152344 Z M 307.796875 262.152344 " fill-opacity="1" fill-rule="nonzero"/></svg>