<!-- icon666.com - MILLIONS OF FREE VECTOR ICONS --><svg version="1.1" id="Capa_1" xmlns="http://www.w3.org/2000/svg" xmlns:xlink="http://www.w3.org/1999/xlink" x="0px" y="0px" viewBox="0 0 464 464" style="enable-background:new 0 0 464 464;" xml:space="preserve"><path style="fill:#1E81CE;" d="M64,104H16V72c0-17.673,14.327-32,32-32h40v64H64z"></path><path style="fill:#5AAAE7;" d="M56,40c17.673,0,32,14.327,32,32v360c0,17.673,14.327,32,32,32h208V40H56z"></path><path style="fill:#FFD422;" d="M416,88c0,10.88-17.52,18.16-21.44,27.52s3.04,27.28-4.32,34.64s-24.88,0-34.64,4.32 S338.88,176,328,176s-18.16-17.52-27.52-21.44s-27.28,3.04-34.64-4.32s0-24.88-4.32-34.64S240,98.88,240,88s17.52-18.16,21.44-27.52 s-3.04-27.28,4.32-34.64s24.88,0,34.64-4.32S317.12,0,328,0s18.16,17.52,27.52,21.44s27.28-3.04,34.64,4.32s0,24.88,4.32,34.64 S416,77.12,416,88z"></path><path style="fill:#1E81CE;" d="M352,464c17.673,0,32-14.327,32-32v-32H160v32c0,17.673-14.327,32-32,32H352z"></path><polygon style="fill:#F40E34;" points="240,144 208,176 240,176 240,208 272,176 "></polygon><circle style="fill:#E7B900;" cx="328" cy="88" r="40"></circle><g><path style="fill:#FFFFFF;" d="M307.438,44.617l-6.875-14.453C309.172,26.074,318.406,24,328,24v16 C320.797,40,313.875,41.555,307.438,44.617z"></path><path style="fill:#FFFFFF;" d="M280,88h-16c0-17.34,6.82-33.578,19.211-45.715l11.203,11.43C285.117,62.82,280,74.996,280,88z"></path><path style="fill:#FFFFFF;" d="M328,152v-16c15.688,0,30.414-7.691,39.398-20.574l13.125,9.156C368.547,141.75,348.914,152,328,152 z"></path><path style="fill:#FFFFFF;" d="M391.352,97.137l-15.844-2.273C375.836,92.602,376,90.293,376,88h16 C392,91.051,391.781,94.125,391.352,97.137z"></path></g><polygon style="fill:#F40E34;" points="416,144 448,176 416,176 416,208 384,176 "></polygon><g><rect x="112" y="320" style="fill:#FFFFFF;" width="192" height="48"></rect><rect x="112" y="72" style="fill:#FFFFFF;" width="104" height="40"></rect><rect x="112" y="280" style="fill:#FFFFFF;" width="192" height="16"></rect><rect x="112" y="248" style="fill:#FFFFFF;" width="192" height="16"></rect><rect x="112" y="216" style="fill:#FFFFFF;" width="104" height="16"></rect><rect x="264" y="216" style="fill:#FFFFFF;" width="40" height="16"></rect><rect x="112" y="184" style="fill:#FFFFFF;" width="64" height="16"></rect><rect x="112" y="152" style="fill:#FFFFFF;" width="64" height="16"></rect></g></svg>