<svg xmlns="http://www.w3.org/2000/svg" xmlns:xlink="http://www.w3.org/1999/xlink" width="500" zoomAndPan="magnify" viewBox="0 0 375 365.249998" height="487" preserveAspectRatio="xMidYMid meet" version="1.0"><defs><clipPath id="298d2d03e7"><path d="M 0.382812 0 L 320.765625 0 L 320.765625 364.269531 L 0.382812 364.269531 Z M 0.382812 0 " clip-rule="nonzero"/></clipPath><clipPath id="2e6d955be3"><path d="M 349.183594 5.082031 L 374.597656 5.082031 L 374.597656 29.410156 L 349.183594 29.410156 Z M 349.183594 5.082031 " clip-rule="nonzero"/></clipPath></defs><g clip-path="url(#298d2d03e7)"><path fill="#b7a28a" d="M 320.757812 300.390625 L 80.484375 364.269531 L 0.382812 63.796875 L 240.660156 -0.078125 L 320.757812 300.390625 " fill-opacity="1" fill-rule="nonzero"/></g><path fill="#f2dab8" d="M 284.894531 337.5625 L 36.25 337.5625 L 36.25 26.628906 L 227.351562 26.628906 L 284.894531 59.804688 L 284.894531 337.5625 " fill-opacity="1" fill-rule="nonzero"/><path fill="#454587" d="M 266.632812 66.699219 L 163.738281 66.699219 L 163.738281 58.535156 L 266.632812 58.535156 L 266.632812 66.699219 " fill-opacity="1" fill-rule="nonzero"/><path fill="#202526" d="M 266.632812 106.570312 L 58.511719 106.570312 L 58.511719 98.410156 L 266.632812 98.410156 L 266.632812 106.570312 " fill-opacity="1" fill-rule="nonzero"/><path fill="#202526" d="M 266.632812 121.089844 L 58.511719 121.089844 L 58.511719 112.929688 L 266.632812 112.929688 L 266.632812 121.089844 " fill-opacity="1" fill-rule="nonzero"/><path fill="#202526" d="M 266.632812 135.609375 L 58.539062 135.609375 L 58.539062 127.445312 L 266.632812 127.445312 L 266.632812 135.609375 " fill-opacity="1" fill-rule="nonzero"/><path fill="#202526" d="M 266.632812 150.128906 L 58.539062 150.128906 L 58.539062 141.964844 L 266.632812 141.964844 L 266.632812 150.128906 " fill-opacity="1" fill-rule="nonzero"/><path fill="#202526" d="M 266.695312 164.644531 L 138.285156 164.644531 L 138.285156 156.484375 L 266.695312 156.484375 L 266.695312 164.644531 " fill-opacity="1" fill-rule="nonzero"/><path fill="#202526" d="M 266.695312 179.164062 L 138.285156 179.164062 L 138.285156 171.003906 L 266.695312 171.003906 L 266.695312 179.164062 " fill-opacity="1" fill-rule="nonzero"/><path fill="#202526" d="M 266.695312 193.683594 L 138.285156 193.683594 L 138.285156 185.519531 L 266.695312 185.519531 L 266.695312 193.683594 " fill-opacity="1" fill-rule="nonzero"/><path fill="#202526" d="M 266.632812 208.203125 L 58.539062 208.203125 L 58.539062 200.039062 L 266.632812 200.039062 L 266.632812 208.203125 " fill-opacity="1" fill-rule="nonzero"/><path fill="#202526" d="M 266.632812 222.71875 L 58.539062 222.71875 L 58.539062 214.558594 L 266.632812 214.558594 L 266.632812 222.71875 " fill-opacity="1" fill-rule="nonzero"/><path fill="#202526" d="M 266.695312 237.238281 L 138.285156 237.238281 L 138.285156 229.078125 L 266.695312 229.078125 L 266.695312 237.238281 " fill-opacity="1" fill-rule="nonzero"/><path fill="#202526" d="M 266.695312 251.757812 L 138.285156 251.757812 L 138.285156 243.597656 L 266.695312 243.597656 L 266.695312 251.757812 " fill-opacity="1" fill-rule="nonzero"/><path fill="#202526" d="M 266.695312 266.277344 L 138.285156 266.277344 L 138.285156 258.113281 L 266.695312 258.113281 L 266.695312 266.277344 " fill-opacity="1" fill-rule="nonzero"/><path fill="#202526" d="M 266.695312 280.796875 L 138.285156 280.796875 L 138.285156 272.632812 L 266.695312 272.632812 L 266.695312 280.796875 " fill-opacity="1" fill-rule="nonzero"/><path fill="#202526" d="M 266.695312 295.3125 L 138.285156 295.3125 L 138.285156 287.152344 L 266.695312 287.152344 L 266.695312 295.3125 " fill-opacity="1" fill-rule="nonzero"/><path fill="#454587" d="M 266.632812 82.757812 L 186.949219 82.757812 L 186.949219 74.59375 L 266.632812 74.59375 L 266.632812 82.757812 " fill-opacity="1" fill-rule="nonzero"/><path fill="#cd3636" d="M 206.277344 213.640625 C 206.085938 213.640625 205.894531 213.59375 205.710938 213.5 C 205.101562 213.1875 204.863281 212.441406 205.179688 211.832031 C 210.199219 202.121094 216.96875 193.675781 225.289062 186.730469 C 231.746094 181.339844 238.992188 176.996094 246.835938 173.820312 C 247.46875 173.5625 248.195312 173.867188 248.453125 174.5 C 248.707031 175.132812 248.402344 175.855469 247.769531 176.113281 C 240.164062 179.195312 233.136719 183.40625 226.878906 188.628906 C 218.8125 195.363281 212.253906 203.550781 207.378906 212.96875 C 207.160156 213.394531 206.726562 213.640625 206.277344 213.640625 " fill-opacity="1" fill-rule="nonzero"/><path fill="#cd3636" d="M 126.5625 144.285156 C 126.246094 144.285156 125.921875 144.214844 125.617188 144.054688 C 124.605469 143.535156 124.207031 142.289062 124.730469 141.277344 C 127.683594 135.566406 131.664062 130.601562 136.558594 126.511719 C 140.355469 123.34375 144.617188 120.789062 149.230469 118.917969 C 150.285156 118.492188 151.492188 119 151.921875 120.054688 C 152.351562 121.109375 151.84375 122.316406 150.785156 122.742188 C 146.570312 124.453125 142.675781 126.785156 139.207031 129.679688 C 134.734375 133.410156 131.101562 137.953125 128.402344 143.171875 C 128.035156 143.878906 127.3125 144.285156 126.5625 144.285156 " fill-opacity="1" fill-rule="nonzero"/><path fill="#cd3636" d="M 157.085938 273.601562 C 156.976562 273.601562 156.867188 273.574219 156.761719 273.519531 C 156.414062 273.339844 156.277344 272.914062 156.460938 272.566406 C 159.328125 267.019531 163.195312 262.191406 167.953125 258.222656 C 171.640625 255.144531 175.785156 252.660156 180.265625 250.84375 C 180.625 250.699219 181.039062 250.871094 181.1875 251.234375 C 181.335938 251.597656 181.160156 252.007812 180.796875 252.15625 C 176.453125 253.914062 172.4375 256.320312 168.859375 259.308594 C 164.25 263.15625 160.503906 267.835938 157.71875 273.21875 C 157.59375 273.460938 157.34375 273.601562 157.085938 273.601562 " fill-opacity="1" fill-rule="nonzero"/><path fill="#cd3636" d="M 175.226562 276.015625 C 175.117188 276.015625 175.007812 275.988281 174.902344 275.9375 C 174.554688 275.757812 174.417969 275.332031 174.597656 274.984375 C 177.46875 269.433594 181.335938 264.609375 186.089844 260.636719 C 189.78125 257.558594 193.925781 255.078125 198.402344 253.261719 C 198.765625 253.113281 199.179688 253.289062 199.328125 253.652344 C 199.472656 254.011719 199.300781 254.425781 198.9375 254.574219 C 194.59375 256.332031 190.578125 258.738281 187 261.722656 C 182.390625 265.570312 178.640625 270.253906 175.855469 275.632812 C 175.730469 275.875 175.484375 276.015625 175.226562 276.015625 " fill-opacity="1" fill-rule="nonzero"/><path fill="#cd3636" d="M 70.867188 284.480469 C 67.90625 284.480469 62.257812 281.390625 49.359375 268.910156 C 48.867188 268.433594 48.855469 267.652344 49.332031 267.160156 C 49.808594 266.667969 50.59375 266.65625 51.082031 267.132812 C 67.609375 283.121094 70.9375 282.1875 71.433594 281.839844 C 72.109375 281.371094 71.6875 278.839844 71.238281 276.160156 C 70.660156 272.71875 69.871094 268.007812 70.203125 262.296875 C 70.628906 254.921875 72.820312 247.613281 76.71875 240.582031 C 77.050781 239.984375 77.804688 239.765625 78.40625 240.097656 C 79.003906 240.429688 79.21875 241.183594 78.890625 241.78125 C 75.171875 248.484375 73.082031 255.4375 72.675781 262.441406 C 72.363281 267.871094 73.125 272.425781 73.683594 275.75 C 74.363281 279.816406 74.8125 282.5 72.859375 283.867188 C 72.34375 284.226562 71.714844 284.480469 70.867188 284.480469 " fill-opacity="1" fill-rule="nonzero"/><path fill="#cd3636" d="M 74.082031 179.777344 C 72.496094 179.777344 69.464844 178.121094 62.542969 171.425781 C 62.28125 171.171875 62.273438 170.75 62.53125 170.488281 C 62.785156 170.222656 63.207031 170.21875 63.46875 170.472656 C 72.335938 179.046875 74.121094 178.550781 74.386719 178.363281 C 74.75 178.109375 74.523438 176.753906 74.28125 175.316406 C 73.972656 173.46875 73.550781 170.941406 73.726562 167.878906 C 73.953125 163.921875 75.132812 160.003906 77.222656 156.230469 C 77.402344 155.910156 77.804688 155.792969 78.128906 155.972656 C 78.449219 156.148438 78.5625 156.554688 78.386719 156.871094 C 76.394531 160.46875 75.269531 164.199219 75.054688 167.957031 C 74.886719 170.867188 75.292969 173.3125 75.59375 175.09375 C 75.960938 177.277344 76.199219 178.714844 75.148438 179.449219 C 74.875 179.644531 74.539062 179.777344 74.082031 179.777344 " fill-opacity="1" fill-rule="nonzero"/><path fill="#cd3636" d="M 85.625 183.074219 C 84.289062 183.074219 82.175781 181.789062 78.007812 177.753906 C 77.515625 177.277344 77.503906 176.496094 77.980469 176.003906 C 78.457031 175.515625 79.242188 175.5 79.730469 175.976562 C 82.710938 178.859375 84.261719 179.9375 85.007812 180.339844 C 84.976562 180.121094 84.9375 179.875 84.898438 179.65625 C 84.703125 178.496094 84.4375 176.90625 84.550781 174.949219 C 84.699219 172.417969 85.449219 169.914062 86.78125 167.515625 C 87.113281 166.914062 87.867188 166.699219 88.464844 167.03125 C 89.066406 167.363281 89.28125 168.113281 88.949219 168.710938 C 87.796875 170.789062 87.152344 172.933594 87.027344 175.09375 C 86.929688 176.769531 87.160156 178.144531 87.34375 179.25 C 87.589844 180.707031 87.800781 181.96875 86.730469 182.71875 C 86.414062 182.9375 86.0625 183.074219 85.625 183.074219 " fill-opacity="1" fill-rule="nonzero"/><path fill="#d1b89f" d="M 240.628906 70.015625 L 284.894531 59.804688 L 227.351562 26.628906 Z M 240.628906 70.015625 " fill-opacity="1" fill-rule="nonzero"/><path fill="#aaa49b" d="M 221.324219 213.46875 C 222.136719 214.054688 222.320312 215.1875 221.734375 216.003906 L 215.71875 224.355469 C 215.128906 225.171875 213.996094 225.355469 213.179688 224.769531 C 212.363281 224.183594 212.179688 223.050781 212.765625 222.234375 L 218.785156 213.882812 C 219.371094 213.066406 220.507812 212.882812 221.324219 213.46875 " fill-opacity="1" fill-rule="nonzero"/><path fill="#fcae34" d="M 349.46875 16.015625 L 368.070312 29.382812 L 246.222656 198.503906 L 227.621094 185.136719 L 349.46875 16.015625 " fill-opacity="1" fill-rule="nonzero"/><path fill="#aaa49b" d="M 349.46875 16.015625 L 368.070312 29.382812 L 362.246094 37.46875 L 343.644531 24.101562 L 349.46875 16.015625 " fill-opacity="1" fill-rule="nonzero"/><g clip-path="url(#2e6d955be3)"><path fill="#d1cabe" d="M 368.496094 7.3125 L 370.285156 8.597656 C 374.929688 11.933594 375.984375 18.398438 372.644531 23.03125 L 368.070312 29.382812 L 349.46875 16.015625 L 354.042969 9.667969 C 357.382812 5.03125 363.855469 3.976562 368.496094 7.3125 " fill-opacity="1" fill-rule="nonzero"/></g><path fill="#fcd875" d="M 218.421875 214.386719 L 218.785156 213.882812 C 219.371094 213.070312 220.507812 212.882812 221.324219 213.46875 C 222.136719 214.054688 222.320312 215.1875 221.734375 216.003906 L 221.371094 216.507812 L 246.363281 198.605469 L 227.476562 185.035156 L 218.421875 214.386719 " fill-opacity="1" fill-rule="nonzero"/></svg>