<svg xmlns="http://www.w3.org/2000/svg" xmlns:xlink="http://www.w3.org/1999/xlink" width="500" zoomAndPan="magnify" viewBox="0 0 375 374.999991" height="500" preserveAspectRatio="xMidYMid meet" version="1.0"><path fill="#4466b9" d="M 375 187.5 C 375 291.050781 291.050781 375 187.5 375 C 83.949219 375 0 291.050781 0 187.5 C 0 83.949219 83.949219 0 187.5 0 C 291.050781 0 375 83.949219 375 187.5 " fill-opacity="1" fill-rule="nonzero"/><path fill="#527ac6" d="M 187.5 0 C 83.949219 0 0 83.949219 0 187.5 C 0 239.273438 20.988281 286.148438 54.90625 320.09375 L 320.09375 54.90625 C 286.148438 20.988281 239.273438 0 187.5 0 " fill-opacity="1" fill-rule="nonzero"/><path fill="#facb07" d="M 271.550781 161.636719 L 213.363281 161.636719 L 213.363281 103.449219 C 213.363281 89.152344 201.792969 77.585938 187.5 77.585938 C 173.207031 77.585938 161.636719 89.152344 161.636719 103.449219 L 161.636719 161.636719 L 103.449219 161.636719 C 89.152344 161.636719 77.585938 173.207031 77.585938 187.5 C 77.585938 201.792969 89.152344 213.363281 103.449219 213.363281 L 161.636719 213.363281 L 161.636719 271.550781 C 161.636719 285.847656 173.207031 297.414062 187.5 297.414062 C 201.792969 297.414062 213.363281 285.847656 213.363281 271.550781 L 213.363281 213.363281 L 271.550781 213.363281 C 285.847656 213.363281 297.414062 201.792969 297.414062 187.5 C 297.414062 173.207031 285.847656 161.636719 271.550781 161.636719 " fill-opacity="1" fill-rule="nonzero"/><path fill="#f4f6f5" d="M 174.570312 32.832031 C 171.210938 32.832031 168.382812 30.257812 168.128906 26.871094 C 167.851562 23.3125 170.503906 20.203125 174.0625 19.925781 C 178.507812 19.574219 183.03125 19.398438 187.5 19.398438 C 191.0625 19.398438 193.964844 22.300781 193.964844 25.863281 C 193.964844 29.421875 191.0625 32.328125 187.5 32.328125 C 183.382812 32.328125 179.191406 32.503906 175.074219 32.832031 C 174.898438 32.832031 174.746094 32.832031 174.570312 32.832031 " fill-opacity="1" fill-rule="nonzero"/><path fill="#f4f6f5" d="M 25.863281 193.964844 C 22.300781 193.964844 19.398438 191.0625 19.398438 187.5 C 19.398438 110.015625 71.929688 42.882812 147.167969 24.296875 C 150.601562 23.414062 154.136719 25.535156 154.96875 29.019531 C 155.828125 32.480469 153.734375 35.988281 150.246094 36.847656 C 80.820312 53.996094 32.328125 115.949219 32.328125 187.5 C 32.328125 191.0625 29.421875 193.964844 25.863281 193.964844 " fill-opacity="1" fill-rule="nonzero"/></svg>