<svg xmlns="http://www.w3.org/2000/svg" xmlns:xlink="http://www.w3.org/1999/xlink" width="470" zoomAndPan="magnify" viewBox="0 0 352.5 374.999991" height="500" preserveAspectRatio="xMidYMid meet" version="1.0"><defs><clipPath id="2133c0f66a"><path d="M 107 0.265625 L 249 0.265625 L 249 143 L 107 143 Z M 107 0.265625 " clip-rule="nonzero"/></clipPath><clipPath id="d9abb081f3"><path d="M 94 290 L 262 290 L 262 374.734375 L 94 374.734375 Z M 94 290 " clip-rule="nonzero"/></clipPath><clipPath id="6882fbd7a2"><path d="M 249 199 L 352 199 L 352 270 L 249 270 Z M 249 199 " clip-rule="nonzero"/></clipPath></defs><g clip-path="url(#2133c0f66a)"><path fill="#16182d" d="M 177.980469 23.949219 C 203.773438 23.949219 224.660156 44.863281 224.660156 70.628906 C 224.660156 96.417969 203.773438 117.304688 177.980469 117.304688 C 152.21875 117.304688 131.300781 96.417969 131.300781 70.628906 C 131.300781 44.863281 152.21875 23.949219 177.980469 23.949219 Z M 109.425781 87.144531 L 119.949219 88.90625 C 121.125 92.664062 122.671875 96.261719 124.519531 99.660156 L 118.257812 108.445312 C 117.4375 109.59375 117.582031 111.171875 118.570312 112.175781 L 137.035156 130.636719 C 138.039062 131.640625 139.617188 131.773438 140.765625 130.957031 L 149.78125 124.53125 C 153.09375 126.265625 156.605469 127.714844 160.230469 128.820312 L 162.070312 139.785156 C 162.3125 141.160156 163.515625 142.195312 164.921875 142.195312 L 191.042969 142.195312 C 192.445312 142.195312 193.652344 141.160156 193.894531 139.785156 L 195.730469 128.820312 C 199.371094 127.714844 202.882812 126.265625 206.195312 124.53125 L 215.210938 130.957031 C 216.359375 131.773438 217.921875 131.640625 218.925781 130.636719 L 237.390625 112.175781 C 238.394531 111.171875 238.523438 109.59375 237.71875 108.445312 L 231.453125 99.660156 C 233.304688 96.261719 234.839844 92.664062 236.015625 88.90625 L 246.535156 87.144531 C 247.925781 86.898438 248.945312 85.695312 248.945312 84.289062 L 248.945312 58.167969 C 248.945312 56.765625 247.925781 55.558594 246.535156 55.316406 L 236.386719 53.609375 C 235.238281 49.652344 233.707031 45.867188 231.8125 42.300781 L 237.71875 34.011719 C 238.523438 32.867188 238.394531 31.289062 237.390625 30.285156 L 218.925781 11.820312 C 217.921875 10.816406 216.359375 10.6875 215.210938 11.503906 L 207.140625 17.253906 C 203.484375 15.234375 199.597656 13.597656 195.527344 12.378906 L 193.894531 2.671875 C 193.652344 1.296875 192.445312 0.265625 191.042969 0.265625 L 164.921875 0.265625 C 163.515625 0.265625 162.3125 1.296875 162.070312 2.671875 L 160.449219 12.378906 C 156.375 13.597656 152.492188 15.234375 148.820312 17.253906 L 140.765625 11.503906 C 139.617188 10.6875 138.039062 10.816406 137.035156 11.820312 L 118.570312 30.285156 C 117.582031 31.289062 117.4375 32.867188 118.257812 34.011719 L 124.164062 42.300781 C 122.269531 45.867188 120.722656 49.652344 119.574219 53.609375 L 109.425781 55.316406 C 108.046875 55.558594 107.015625 56.765625 107.015625 58.167969 L 107.015625 84.289062 C 107.015625 85.695312 108.046875 86.898438 109.425781 87.144531 " fill-opacity="1" fill-rule="nonzero"/></g><path fill="#16182d" d="M 177.980469 91.832031 C 189.695312 91.832031 199.1875 82.34375 199.1875 70.628906 C 199.1875 58.925781 189.695312 49.421875 177.980469 49.421875 C 166.277344 49.421875 156.777344 58.925781 156.777344 70.628906 C 156.777344 82.34375 166.277344 91.832031 177.980469 91.832031 " fill-opacity="1" fill-rule="nonzero"/><g clip-path="url(#d9abb081f3)"><path fill="#16182d" d="M 258.640625 319.203125 C 258.59375 319.078125 258.539062 318.953125 258.46875 318.828125 C 254.554688 310.265625 246.929688 304.621094 235.519531 301.792969 C 226.820312 299.632812 218.019531 297.902344 209.433594 295.386719 C 208.449219 295.097656 207.636719 294.949219 206.9375 294.9375 C 206.902344 294.949219 206.859375 294.9375 206.824219 294.9375 C 206.183594 294.902344 205.679688 295.007812 205.28125 295.226562 C 205.222656 295.25 205.164062 295.269531 205.117188 295.304688 C 203.894531 295.921875 203.195312 297.308594 202.589844 299.367188 C 201.035156 304.667969 199.042969 309.828125 197.222656 315.050781 C 194.429688 323.074219 191.636719 331.109375 188.855469 339.140625 C 186.621094 331.757812 185.808594 324.421875 184.265625 317.269531 C 183.832031 314.386719 183.394531 311.5 183.003906 308.605469 C 182.9375 306.222656 183.246094 303.933594 184.117188 301.792969 C 184.4375 301.300781 184.777344 300.820312 185.089844 300.375 C 186.269531 298.65625 187.640625 297.070312 188.992188 295.488281 C 189.230469 295.214844 189.472656 294.929688 189.714844 294.640625 C 189.714844 294.640625 189.714844 294.640625 189.726562 294.628906 C 189.941406 294.367188 190.160156 294.101562 190.375 293.839844 C 190.261719 293.734375 190.136719 293.644531 190 293.554688 C 187.699219 291.882812 182.855469 291.011719 177.992188 290.96875 C 173.128906 291.011719 168.273438 291.882812 165.964844 293.542969 C 165.824219 293.644531 165.699219 293.734375 165.585938 293.839844 C 165.800781 294.101562 166.019531 294.367188 166.25 294.628906 C 166.25 294.640625 166.257812 294.640625 166.257812 294.640625 C 166.476562 294.914062 166.707031 295.179688 166.933594 295.441406 C 166.933594 295.441406 166.945312 295.441406 166.945312 295.464844 C 168.320312 297.054688 169.695312 298.648438 170.871094 300.375 C 171.179688 300.832031 171.535156 301.324219 171.867188 301.828125 C 172.738281 303.992188 173.027344 306.292969 172.957031 308.695312 C 172.554688 311.558594 172.132812 314.410156 171.695312 317.269531 C 170.152344 324.421875 169.351562 331.757812 167.117188 339.140625 C 164.324219 331.109375 161.535156 323.074219 158.738281 315.050781 C 156.933594 309.828125 154.929688 304.667969 153.371094 299.367188 C 152.765625 297.320312 152.089844 295.945312 150.878906 295.328125 C 150.878906 295.328125 150.867188 295.316406 150.855469 295.304688 C 150.417969 295.042969 149.871094 294.894531 149.136719 294.9375 L 149.023438 294.9375 C 148.324219 294.949219 147.511719 295.097656 146.527344 295.386719 C 137.957031 297.902344 129.140625 299.632812 120.441406 301.792969 C 109.03125 304.621094 101.421875 310.265625 97.492188 318.828125 C 97.425781 318.953125 97.367188 319.078125 97.324219 319.203125 C 95.332031 323.472656 94.335938 328.382812 94.335938 333.832031 C 94.335938 337.378906 94.335938 340.929688 94.324219 344.476562 L 94.324219 349.308594 C 94.324219 351.492188 94.324219 353.679688 94.335938 355.867188 C 94.335938 357.238281 94.335938 358.601562 94.34375 359.972656 C 94.34375 361.371094 94.34375 362.765625 94.359375 364.152344 C 94.359375 364.402344 94.367188 364.65625 94.378906 364.894531 C 94.402344 365.683594 94.449219 366.417969 94.539062 367.117188 C 94.574219 367.367188 94.609375 367.609375 94.644531 367.847656 C 94.746094 368.433594 94.863281 368.96875 95.007812 369.472656 C 95.296875 370.46875 95.695312 371.304688 96.234375 372.027344 C 96.382812 372.265625 96.578125 372.496094 96.808594 372.703125 C 96.976562 372.894531 97.183594 373.089844 97.402344 373.242188 C 97.460938 373.285156 97.503906 373.332031 97.5625 373.363281 C 97.734375 373.503906 97.917969 373.628906 98.113281 373.742188 C 98.273438 373.847656 98.433594 373.9375 98.605469 374.03125 C 98.949219 374.1875 99.3125 374.351562 99.703125 374.488281 C 100.550781 374.785156 101.5 374.992188 102.566406 375.105469 C 103.398438 375.207031 104.316406 375.253906 105.3125 375.253906 C 127.082031 375.265625 148.851562 375.265625 170.621094 375.265625 L 185.351562 375.265625 C 207.121094 375.265625 228.894531 375.265625 250.664062 375.253906 C 251.644531 375.253906 252.5625 375.207031 253.398438 375.105469 C 253.902344 375.046875 254.382812 374.96875 254.828125 374.878906 C 255.089844 374.828125 255.355469 374.761719 255.59375 374.691406 C 255.824219 374.636719 256.042969 374.566406 256.257812 374.488281 C 260.082031 373.191406 261.558594 370.046875 261.605469 364.152344 C 261.617188 362.847656 261.617188 361.542969 261.617188 360.234375 C 261.625 358.953125 261.625 357.671875 261.625 356.378906 C 261.636719 354.230469 261.636719 352.078125 261.636719 349.9375 L 261.636719 345.816406 C 261.625 341.820312 261.625 337.824219 261.625 333.832031 C 261.625 328.382812 260.628906 323.472656 258.640625 319.203125 " fill-opacity="1" fill-rule="nonzero"/></g><path fill="#16182d" d="M 177.980469 183.398438 C 154.59375 183.398438 135.632812 203.640625 135.632812 228.609375 C 135.632812 253.578125 154.59375 273.820312 177.980469 273.820312 C 201.371094 273.820312 220.332031 253.578125 220.332031 228.609375 C 220.332031 203.640625 201.371094 183.398438 177.980469 183.398438 " fill-opacity="1" fill-rule="nonzero"/><g clip-path="url(#6882fbd7a2)"><path fill="#16182d" d="M 301.007812 199.144531 C 272.570312 199.144531 249.519531 222.199219 249.519531 250.636719 L 249.519531 255.492188 C 249.519531 263.085938 255.671875 269.242188 263.269531 269.242188 L 338.75 269.242188 C 346.347656 269.242188 352.5 263.085938 352.5 255.492188 L 352.5 250.636719 C 352.5 222.199219 329.445312 199.144531 301.007812 199.144531 " fill-opacity="1" fill-rule="nonzero"/></g><path fill="#16182d" d="M 301.007812 186.164062 C 317.257812 186.164062 330.433594 172.988281 330.433594 156.738281 C 330.433594 140.488281 317.257812 127.3125 301.007812 127.3125 C 284.757812 127.3125 271.585938 140.488281 271.585938 156.738281 C 271.585938 172.988281 284.757812 186.164062 301.007812 186.164062 " fill-opacity="1" fill-rule="nonzero"/><path fill="#16182d" d="M 102.980469 255.492188 L 102.980469 250.636719 C 102.980469 222.199219 79.929688 199.144531 51.492188 199.144531 C 23.054688 199.144531 0 222.199219 0 250.636719 L 0 255.492188 C 0 263.085938 6.152344 269.242188 13.75 269.242188 L 89.234375 269.242188 C 96.824219 269.242188 102.980469 263.085938 102.980469 255.492188 " fill-opacity="1" fill-rule="nonzero"/><path fill="#16182d" d="M 51.492188 186.164062 C 67.742188 186.164062 80.914062 172.988281 80.914062 156.738281 C 80.914062 140.488281 67.742188 127.3125 51.492188 127.3125 C 35.242188 127.3125 22.066406 140.488281 22.066406 156.738281 C 22.066406 172.988281 35.242188 186.164062 51.492188 186.164062 " fill-opacity="1" fill-rule="nonzero"/></svg>