<svg xmlns="http://www.w3.org/2000/svg" xmlns:xlink="http://www.w3.org/1999/xlink" width="297" zoomAndPan="magnify" viewBox="0 0 222.75 374.999991" height="500" preserveAspectRatio="xMidYMid meet" version="1.0"><defs><clipPath id="ef2feb9675"><path d="M 140 0.210938 L 188 0.210938 L 188 188 L 140 188 Z M 140 0.210938 " clip-rule="nonzero"/></clipPath><clipPath id="d6c4dff281"><path d="M 0 193 L 165 193 L 165 374.789062 L 0 374.789062 Z M 0 193 " clip-rule="nonzero"/></clipPath><clipPath id="185f9248c6"><path d="M 0.0351562 193.164062 L 222.5 193.164062 L 222.5 374.789062 L 0.0351562 374.789062 Z M 0.0351562 193.164062 " clip-rule="nonzero"/></clipPath><clipPath id="596d8aa52a"><path d="M 113.664062 147.039062 L 222.5 147.039062 L 222.5 374.789062 L 113.664062 374.789062 Z M 113.664062 147.039062 " clip-rule="nonzero"/></clipPath><clipPath id="c8655d486c"><path d="M 76 316 L 129 316 L 129 374.789062 L 76 374.789062 Z M 76 316 " clip-rule="nonzero"/></clipPath></defs><g clip-path="url(#ef2feb9675)"><path fill="#ffdf47" d="M 186.039062 187.539062 L 142.164062 187.539062 C 141.332031 187.539062 140.664062 186.867188 140.664062 186.039062 L 140.664062 23.476562 C 140.664062 10.53125 151.15625 0.0390625 164.101562 0.0390625 C 177.046875 0.0390625 187.539062 10.53125 187.539062 23.476562 L 187.539062 186.039062 C 187.539062 186.867188 186.867188 187.539062 186.039062 187.539062 " fill-opacity="1" fill-rule="nonzero"/></g><g clip-path="url(#d6c4dff281)"><path fill="#fcd329" d="M 164.101562 210.976562 L 158.242188 216.835938 L 117.226562 240.273438 L 117.226562 375.039062 L 17.613281 375.039062 L 0.0351562 246.132812 L 0.0351562 193.398438 L 128.945312 193.398438 L 164.101562 210.976562 " fill-opacity="1" fill-rule="nonzero"/></g><g clip-path="url(#185f9248c6)"><path fill="#ffdf47" d="M 216.425781 193.398438 L 222.695312 240.273438 L 187.539062 375.039062 L 17.613281 375.039062 L 0.0351562 246.132812 L 0.0351562 193.398438 L 216.425781 193.398438 " fill-opacity="1" fill-rule="nonzero"/></g><path fill="#ffdf47" d="M 23.472656 234.414062 C 10.527344 234.414062 0.0351562 223.921875 0.0351562 210.976562 L 0.0351562 152.382812 C 0.0351562 139.4375 10.527344 128.945312 23.472656 128.945312 C 36.417969 128.945312 46.910156 139.4375 46.910156 152.382812 L 46.910156 210.976562 C 46.910156 223.921875 36.417969 234.414062 23.472656 234.414062 " fill-opacity="1" fill-rule="nonzero"/><path fill="#ffdf47" d="M 70.347656 228.554688 C 57.40625 228.554688 46.910156 218.0625 46.910156 205.117188 L 46.910156 146.523438 C 46.910156 133.578125 57.40625 123.085938 70.347656 123.085938 C 83.292969 123.085938 93.789062 133.578125 93.789062 146.523438 L 93.789062 205.117188 C 93.789062 218.0625 83.292969 228.554688 70.347656 228.554688 " fill-opacity="1" fill-rule="nonzero"/><path fill="#ffdf47" d="M 140.664062 140.664062 L 140.664062 199.257812 C 140.664062 212.207031 130.175781 222.695312 117.226562 222.695312 C 104.277344 222.695312 93.789062 212.207031 93.789062 199.257812 L 93.789062 140.664062 C 93.789062 139.667969 93.847656 138.671875 93.964844 137.675781 C 95.429688 126.132812 105.273438 117.226562 117.226562 117.226562 C 123.671875 117.226562 129.53125 119.863281 133.808594 124.082031 C 138.027344 128.359375 140.664062 134.21875 140.664062 140.664062 " fill-opacity="1" fill-rule="nonzero"/><path fill="#fcd329" d="M 76.207031 222.695312 C 66.539062 222.695312 58.628906 214.785156 58.628906 205.117188 L 58.628906 146.523438 C 58.628906 136.855469 66.539062 128.945312 76.207031 128.945312 C 85.878906 128.945312 93.789062 136.855469 93.789062 146.523438 C 93.789062 140.078125 91.152344 134.21875 86.933594 129.941406 C 82.65625 125.722656 76.792969 123.085938 70.347656 123.085938 C 65.894531 123.085938 61.675781 124.316406 58.101562 126.542969 C 52.183594 130.117188 48.023438 136.328125 47.085938 143.535156 C 46.96875 144.53125 46.910156 145.527344 46.910156 146.523438 L 46.910156 205.117188 C 46.910156 206.113281 46.96875 207.109375 47.085938 208.105469 C 48.023438 215.3125 52.183594 221.523438 58.101562 225.097656 C 61.675781 227.324219 65.894531 228.554688 70.347656 228.554688 C 76.792969 228.554688 82.65625 225.917969 86.933594 221.699219 C 91.152344 217.421875 93.789062 211.5625 93.789062 205.117188 C 93.789062 214.785156 85.878906 222.695312 76.207031 222.695312 " fill-opacity="1" fill-rule="nonzero"/><path fill="#fcd329" d="M 29.332031 228.554688 C 19.664062 228.554688 11.753906 220.644531 11.753906 210.976562 L 11.753906 152.382812 C 11.753906 142.714844 19.664062 134.804688 29.332031 134.804688 C 39 134.804688 46.910156 142.714844 46.910156 152.382812 C 46.910156 145.9375 44.273438 140.078125 40.054688 135.800781 C 35.777344 131.582031 29.917969 128.945312 23.472656 128.945312 C 19.019531 128.945312 14.800781 130.175781 11.226562 132.402344 C 5.308594 135.976562 1.148438 142.1875 0.210938 149.394531 C 0.09375 150.390625 0.0351562 151.386719 0.0351562 152.382812 L 0.0351562 210.976562 C 0.0351562 211.972656 0.09375 212.96875 0.210938 213.964844 C 1.148438 221.171875 5.308594 227.382812 11.226562 230.957031 C 14.800781 233.183594 19.019531 234.414062 23.472656 234.414062 C 29.917969 234.414062 35.777344 231.777344 40.054688 227.558594 C 44.273438 223.28125 46.910156 217.421875 46.910156 210.976562 C 46.910156 220.644531 39 228.554688 29.332031 228.554688 " fill-opacity="1" fill-rule="nonzero"/><g clip-path="url(#596d8aa52a)"><path fill="#ffdf47" d="M 222.695312 240.273438 L 187.539062 375.039062 L 121.09375 280.9375 L 117.226562 275.429688 C 117.226562 275.019531 117.226562 274.667969 117.285156 274.257812 C 117.285156 273.320312 117.285156 272.324219 117.34375 271.386719 C 117.460938 270.039062 117.578125 268.691406 117.753906 267.34375 C 120.15625 248.652344 130.820312 231.777344 147.050781 221.640625 L 164.101562 210.976562 L 152.617188 207.519531 L 153.496094 206.992188 L 144.765625 204.414062 C 133.164062 200.898438 123.847656 193.28125 118.046875 183.613281 C 117.988281 183.554688 117.929688 183.4375 117.929688 183.378906 C 115.761719 178.984375 114.414062 174.179688 113.945312 169.199219 C 113.945312 169.199219 113.945312 169.140625 113.945312 169.082031 C 113.828125 167.96875 113.769531 166.796875 113.769531 165.625 C 113.769531 163.925781 113.828125 162.167969 114.0625 160.410156 C 114.296875 158.769531 114.589844 157.070312 115 155.429688 C 116.230469 150.507812 120.683594 147.109375 125.664062 147.109375 L 126.367188 147.109375 L 128.183594 147.226562 L 191.757812 151.152344 C 199.375 151.621094 205.996094 155.722656 209.921875 161.816406 C 209.921875 161.875 209.980469 161.933594 210.039062 161.992188 C 210.273438 162.285156 210.449219 162.578125 210.566406 162.871094 C 212.089844 165.449219 213.085938 168.378906 213.496094 171.484375 L 222.695312 240.273438 " fill-opacity="1" fill-rule="nonzero"/></g><path fill="#fcd329" d="M 173.359375 204.355469 C 173.652344 206.640625 172.597656 208.867188 170.664062 210.097656 L 153.613281 220.761719 C 136.679688 231.308594 126.542969 249.589844 126.542969 269.570312 C 126.542969 272.792969 123.90625 275.429688 120.683594 275.429688 C 119.980469 275.429688 119.335938 275.3125 118.691406 275.078125 C 118.164062 274.902344 117.695312 274.609375 117.285156 274.257812 C 115.820312 273.261719 114.824219 271.503906 114.824219 269.570312 C 114.824219 268.222656 114.882812 266.875 114.941406 265.527344 C 115.058594 264.179688 115.175781 262.832031 115.351562 261.484375 C 117.695312 240.683594 129.296875 222.109375 147.402344 210.800781 L 152.617188 207.519531 L 153.496094 206.992188 L 144.765625 204.414062 C 133.164062 200.898438 123.847656 193.28125 118.046875 183.613281 C 117.988281 183.554688 117.929688 183.4375 117.929688 183.378906 C 115.761719 178.984375 114.414062 174.179688 113.945312 169.199219 C 113.945312 169.199219 113.945312 169.140625 113.945312 169.082031 C 113.828125 167.96875 113.769531 166.796875 113.769531 165.625 C 113.769531 163.925781 113.828125 162.167969 114.0625 160.410156 C 114.296875 158.769531 114.589844 157.070312 115 155.429688 C 116.230469 150.507812 120.683594 147.109375 125.664062 147.109375 L 126.367188 147.109375 L 128.183594 147.226562 C 126.25 147.578125 124.667969 148.984375 124.140625 150.976562 C 119.570312 169.257812 130.117188 187.773438 148.164062 193.164062 L 169.257812 199.492188 C 171.425781 200.195312 173.066406 202.070312 173.359375 204.355469 " fill-opacity="1" fill-rule="nonzero"/><path fill="#fcd329" d="M 123.085938 216.835938 C 113.417969 216.835938 105.507812 208.925781 105.507812 199.257812 L 105.507812 140.664062 C 105.507812 130.996094 113.417969 123.085938 123.085938 123.085938 C 132.753906 123.085938 140.664062 130.996094 140.664062 140.664062 C 140.664062 134.21875 138.027344 128.359375 133.808594 124.082031 C 129.53125 119.863281 123.671875 117.226562 117.226562 117.226562 C 112.773438 117.226562 108.554688 118.457031 104.980469 120.683594 C 99.0625 124.257812 94.902344 130.46875 93.964844 137.675781 C 93.847656 138.671875 93.789062 139.667969 93.789062 140.664062 L 93.789062 199.257812 C 93.789062 200.253906 93.847656 201.25 93.964844 202.246094 C 94.902344 209.453125 99.0625 215.664062 104.980469 219.238281 C 108.554688 221.464844 112.773438 222.695312 117.226562 222.695312 C 123.671875 222.695312 129.53125 220.058594 133.808594 215.839844 C 138.027344 211.5625 140.664062 205.703125 140.664062 199.257812 C 140.664062 208.925781 132.753906 216.835938 123.085938 216.835938 " fill-opacity="1" fill-rule="nonzero"/><g clip-path="url(#c8655d486c)"><path fill="#fcd329" d="M 105.507812 375.039062 C 104.007812 375.039062 102.507812 374.464844 101.363281 373.320312 L 77.925781 349.882812 C 75.636719 347.59375 75.636719 343.886719 77.925781 341.597656 C 80.214844 339.308594 83.921875 339.308594 86.210938 341.597656 L 105.507812 360.894531 L 117.226562 349.175781 L 117.226562 322.304688 C 117.226562 319.066406 119.84375 316.445312 123.085938 316.445312 C 126.324219 316.445312 128.945312 319.066406 128.945312 322.304688 L 128.945312 351.601562 C 128.945312 353.15625 128.324219 354.644531 127.226562 355.742188 L 109.648438 373.320312 C 108.503906 374.464844 107.003906 375.039062 105.507812 375.039062 " fill-opacity="1" fill-rule="nonzero"/></g></svg>