<svg xmlns="http://www.w3.org/2000/svg" xmlns:xlink="http://www.w3.org/1999/xlink" width="500" zoomAndPan="magnify" viewBox="0 0 375 374.999991" height="500" preserveAspectRatio="xMidYMid meet" version="1.0"><path fill="#fcc352" d="M 375.035156 187.5 C 375.035156 190.570312 374.960938 193.636719 374.8125 196.703125 C 374.660156 199.765625 374.433594 202.828125 374.132812 205.882812 C 373.832031 208.9375 373.457031 211.980469 373.007812 215.015625 C 372.554688 218.054688 372.03125 221.078125 371.433594 224.085938 C 370.835938 227.097656 370.160156 230.089844 369.417969 233.066406 C 368.671875 236.042969 367.851562 239 366.960938 241.9375 C 366.070312 244.875 365.109375 247.789062 364.074219 250.679688 C 363.039062 253.570312 361.9375 256.429688 360.761719 259.265625 C 359.585938 262.101562 358.34375 264.90625 357.03125 267.683594 C 355.71875 270.457031 354.339844 273.199219 352.890625 275.902344 C 351.445312 278.609375 349.933594 281.28125 348.355469 283.914062 C 346.777344 286.546875 345.136719 289.136719 343.429688 291.691406 C 341.726562 294.242188 339.960938 296.75 338.128906 299.214844 C 336.300781 301.679688 334.414062 304.097656 332.46875 306.472656 C 330.519531 308.84375 328.515625 311.167969 326.457031 313.441406 C 324.394531 315.714844 322.277344 317.9375 320.109375 320.109375 C 317.9375 322.277344 315.714844 324.394531 313.441406 326.457031 C 311.167969 328.515625 308.84375 330.519531 306.472656 332.46875 C 304.097656 334.414062 301.679688 336.300781 299.214844 338.128906 C 296.75 339.960938 294.242188 341.726562 291.691406 343.429688 C 289.136719 345.136719 286.546875 346.777344 283.914062 348.355469 C 281.28125 349.933594 278.609375 351.445312 275.902344 352.890625 C 273.199219 354.339844 270.457031 355.71875 267.683594 357.03125 C 264.90625 358.34375 262.101562 359.585938 259.265625 360.761719 C 256.429688 361.9375 253.570312 363.039062 250.679688 364.074219 C 247.789062 365.109375 244.875 366.070312 241.9375 366.960938 C 239 367.851562 236.042969 368.671875 233.066406 369.417969 C 230.089844 370.160156 227.097656 370.835938 224.085938 371.433594 C 221.078125 372.03125 218.054688 372.554688 215.015625 373.007812 C 211.980469 373.457031 208.9375 373.832031 205.882812 374.132812 C 202.828125 374.433594 199.765625 374.660156 196.703125 374.8125 C 193.636719 374.960938 190.570312 375.035156 187.5 375.035156 C 184.429688 375.035156 181.363281 374.960938 178.296875 374.8125 C 175.234375 374.660156 172.171875 374.433594 169.117188 374.132812 C 166.0625 373.832031 163.019531 373.457031 159.984375 373.007812 C 156.945312 372.554688 153.921875 372.03125 150.914062 371.433594 C 147.902344 370.835938 144.910156 370.160156 141.933594 369.417969 C 138.957031 368.671875 135.996094 367.851562 133.0625 366.960938 C 130.125 366.070312 127.210938 365.109375 124.320312 364.074219 C 121.429688 363.039062 118.570312 361.9375 115.734375 360.761719 C 112.898438 359.585938 110.09375 358.34375 107.316406 357.03125 C 104.542969 355.71875 101.800781 354.339844 99.097656 352.890625 C 96.390625 351.445312 93.71875 349.933594 91.085938 348.355469 C 88.453125 346.777344 85.863281 345.136719 83.308594 343.429688 C 80.757812 341.726562 78.25 339.960938 75.785156 338.128906 C 73.320312 336.300781 70.902344 334.414062 68.527344 332.46875 C 66.15625 330.519531 63.832031 328.515625 61.558594 326.457031 C 59.285156 324.394531 57.0625 322.277344 54.890625 320.109375 C 52.722656 317.9375 50.605469 315.714844 48.542969 313.441406 C 46.484375 311.167969 44.480469 308.84375 42.53125 306.472656 C 40.585938 304.097656 38.699219 301.679688 36.871094 299.214844 C 35.039062 296.75 33.273438 294.242188 31.570312 291.691406 C 29.863281 289.136719 28.222656 286.546875 26.644531 283.914062 C 25.066406 281.28125 23.554688 278.609375 22.109375 275.902344 C 20.660156 273.199219 19.28125 270.457031 17.96875 267.683594 C 16.65625 264.90625 15.414062 262.101562 14.238281 259.265625 C 13.0625 256.429688 11.960938 253.570312 10.925781 250.679688 C 9.890625 247.789062 8.929688 244.875 8.039062 241.9375 C 7.148438 239 6.328125 236.042969 5.582031 233.066406 C 4.835938 230.089844 4.164062 227.097656 3.566406 224.085938 C 2.96875 221.078125 2.445312 218.054688 1.992188 215.015625 C 1.542969 211.980469 1.167969 208.9375 0.867188 205.882812 C 0.566406 202.828125 0.339844 199.765625 0.1875 196.703125 C 0.0390625 193.636719 -0.0351562 190.570312 -0.0351562 187.5 C -0.0351562 184.429688 0.0390625 181.363281 0.1875 178.296875 C 0.339844 175.234375 0.566406 172.171875 0.867188 169.117188 C 1.167969 166.0625 1.542969 163.019531 1.992188 159.984375 C 2.445312 156.945312 2.96875 153.921875 3.566406 150.914062 C 4.164062 147.902344 4.835938 144.910156 5.582031 141.933594 C 6.328125 138.957031 7.148438 135.996094 8.039062 133.0625 C 8.929688 130.125 9.890625 127.210938 10.925781 124.320312 C 11.960938 121.429688 13.0625 118.570312 14.238281 115.734375 C 15.414062 112.898438 16.65625 110.09375 17.96875 107.316406 C 19.28125 104.542969 20.660156 101.800781 22.109375 99.097656 C 23.554688 96.390625 25.066406 93.71875 26.644531 91.085938 C 28.222656 88.453125 29.863281 85.863281 31.570312 83.308594 C 33.273438 80.757812 35.039062 78.25 36.871094 75.785156 C 38.699219 73.320312 40.585938 70.902344 42.53125 68.527344 C 44.480469 66.15625 46.484375 63.832031 48.542969 61.558594 C 50.605469 59.285156 52.722656 57.0625 54.890625 54.890625 C 57.0625 52.722656 59.285156 50.605469 61.558594 48.542969 C 63.832031 46.484375 66.15625 44.480469 68.527344 42.53125 C 70.902344 40.585938 73.320312 38.699219 75.785156 36.871094 C 78.25 35.039062 80.757812 33.273438 83.308594 31.570312 C 85.863281 29.863281 88.453125 28.222656 91.085938 26.644531 C 93.71875 25.066406 96.390625 23.554688 99.097656 22.109375 C 101.800781 20.660156 104.542969 19.28125 107.316406 17.96875 C 110.09375 16.65625 112.898438 15.414062 115.734375 14.238281 C 118.570312 13.0625 121.429688 11.960938 124.320312 10.925781 C 127.210938 9.890625 130.125 8.929688 133.0625 8.039062 C 135.996094 7.148438 138.957031 6.328125 141.933594 5.582031 C 144.910156 4.835938 147.902344 4.164062 150.914062 3.566406 C 153.921875 2.96875 156.945312 2.445312 159.984375 1.992188 C 163.019531 1.542969 166.0625 1.167969 169.117188 0.867188 C 172.171875 0.566406 175.234375 0.339844 178.296875 0.1875 C 181.363281 0.0390625 184.429688 -0.0351562 187.5 -0.0351562 C 190.570312 -0.0351562 193.636719 0.0390625 196.703125 0.1875 C 199.765625 0.339844 202.828125 0.566406 205.882812 0.867188 C 208.9375 1.167969 211.980469 1.542969 215.015625 1.992188 C 218.054688 2.445312 221.078125 2.96875 224.085938 3.566406 C 227.097656 4.164062 230.089844 4.835938 233.066406 5.582031 C 236.042969 6.328125 239 7.148438 241.9375 8.039062 C 244.875 8.929688 247.789062 9.890625 250.679688 10.925781 C 253.570312 11.960938 256.429688 13.0625 259.265625 14.238281 C 262.101562 15.414062 264.90625 16.65625 267.683594 17.96875 C 270.457031 19.28125 273.199219 20.660156 275.902344 22.109375 C 278.609375 23.554688 281.28125 25.066406 283.914062 26.644531 C 286.546875 28.222656 289.136719 29.863281 291.691406 31.570312 C 294.242188 33.273438 296.75 35.039062 299.214844 36.871094 C 301.679688 38.699219 304.097656 40.585938 306.472656 42.53125 C 308.84375 44.480469 311.167969 46.484375 313.441406 48.542969 C 315.714844 50.605469 317.9375 52.722656 320.109375 54.890625 C 322.277344 57.0625 324.394531 59.285156 326.457031 61.558594 C 328.515625 63.832031 330.519531 66.15625 332.46875 68.527344 C 334.414062 70.902344 336.300781 73.320312 338.128906 75.785156 C 339.960938 78.25 341.726562 80.757812 343.429688 83.308594 C 345.136719 85.863281 346.777344 88.453125 348.355469 91.085938 C 349.933594 93.71875 351.445312 96.390625 352.890625 99.097656 C 354.339844 101.800781 355.71875 104.542969 357.03125 107.316406 C 358.34375 110.09375 359.585938 112.898438 360.761719 115.734375 C 361.9375 118.570312 363.039062 121.429688 364.074219 124.320312 C 365.109375 127.210938 366.070312 130.125 366.960938 133.0625 C 367.851562 135.996094 368.671875 138.957031 369.417969 141.933594 C 370.160156 144.910156 370.835938 147.902344 371.433594 150.914062 C 372.03125 153.921875 372.554688 156.945312 373.007812 159.984375 C 373.457031 163.019531 373.832031 166.0625 374.132812 169.117188 C 374.433594 172.171875 374.660156 175.234375 374.8125 178.296875 C 374.960938 181.363281 375.035156 184.429688 375.035156 187.5 Z M 375.035156 187.5 " fill-opacity="1" fill-rule="nonzero"/><path fill="#61accd" d="M 102.953125 73.320312 L 288.667969 73.320312 L 288.667969 319.089844 L 102.953125 319.089844 Z M 102.953125 73.320312 " fill-opacity="1" fill-rule="nonzero"/><path fill="#6abce1" d="M 94.003906 64.605469 L 279.71875 64.605469 L 279.71875 310.375 L 94.003906 310.375 Z M 94.003906 64.605469 " fill-opacity="1" fill-rule="nonzero"/><path fill="#ffffff" d="M 86.332031 55.910156 L 272.046875 55.910156 L 272.046875 301.679688 L 86.332031 301.679688 Z M 86.332031 55.910156 " fill-opacity="1" fill-rule="nonzero"/><path fill="#6abce1" d="M 105.296875 126.921875 L 253.074219 126.921875 L 253.074219 140.382812 L 105.296875 140.382812 Z M 105.296875 126.921875 " fill-opacity="1" fill-rule="nonzero"/><path stroke-linecap="butt" transform="matrix(1.464844, 0, 0, 1.464844, -123.925768, -123.925773)" fill="none" stroke-linejoin="miter" d="M 156.482669 171.245339 L 257.365342 171.245339 L 257.365342 262.344012 L 156.482669 262.344012 Z M 156.482669 171.245339 " stroke="#364b9b" stroke-width="0.523" stroke-opacity="1" stroke-miterlimit="10"/><path stroke-linecap="butt" transform="matrix(1.464844, 0, 0, 1.464844, -123.925768, -123.925773)" fill="none" stroke-linejoin="miter" d="M 156.482669 171.245339 L 257.365342 171.245339 L 257.365342 180.434673 L 156.482669 180.434673 Z M 156.482669 171.245339 " stroke="#364b9b" stroke-width="0.166" stroke-opacity="1" stroke-miterlimit="10"/><path stroke-linecap="butt" transform="matrix(1.464844, 0, 0, 1.464844, -123.925768, -123.925773)" fill="none" stroke-linejoin="miter" d="M 156.482669 180.434673 L 257.365342 180.434673 L 257.365342 189.624007 L 156.482669 189.624007 Z M 156.482669 180.434673 " stroke="#364b9b" stroke-width="0.166" stroke-opacity="1" stroke-miterlimit="10"/><path stroke-linecap="butt" transform="matrix(1.464844, 0, 0, 1.464844, -123.925768, -123.925773)" fill="none" stroke-linejoin="miter" d="M 156.482669 189.624007 L 257.365342 189.624007 L 257.365342 198.810675 L 156.482669 198.810675 Z M 156.482669 189.624007 " stroke="#364b9b" stroke-width="0.166" stroke-opacity="1" stroke-miterlimit="10"/><path stroke-linecap="butt" transform="matrix(1.464844, 0, 0, 1.464844, -123.925768, -123.925773)" fill="none" stroke-linejoin="miter" d="M 156.482669 198.810675 L 257.365342 198.810675 L 257.365342 208.000009 L 156.482669 208.000009 Z M 156.482669 198.810675 " stroke="#364b9b" stroke-width="0.166" stroke-opacity="1" stroke-miterlimit="10"/><path stroke-linecap="butt" transform="matrix(1.464844, 0, 0, 1.464844, -123.925768, -123.925773)" fill="none" stroke-linejoin="miter" d="M 156.482669 208.000009 L 257.365342 208.000009 L 257.365342 217.186676 L 156.482669 217.186676 Z M 156.482669 208.000009 " stroke="#364b9b" stroke-width="0.166" stroke-opacity="1" stroke-miterlimit="10"/><path stroke-linecap="butt" transform="matrix(1.464844, 0, 0, 1.464844, -123.925768, -123.925773)" fill="none" stroke-linejoin="miter" d="M 156.482669 217.189343 L 257.365342 217.189343 L 257.365342 226.37601 L 156.482669 226.37601 Z M 156.482669 217.189343 " stroke="#364b9b" stroke-width="0.166" stroke-opacity="1" stroke-miterlimit="10"/><path stroke-linecap="butt" transform="matrix(1.464844, 0, 0, 1.464844, -123.925768, -123.925773)" fill="none" stroke-linejoin="miter" d="M 156.482669 226.37601 L 257.365342 226.37601 L 257.365342 235.565344 L 156.482669 235.565344 Z M 156.482669 226.37601 " stroke="#364b9b" stroke-width="0.166" stroke-opacity="1" stroke-miterlimit="10"/><path stroke-linecap="butt" transform="matrix(1.464844, 0, 0, 1.464844, -123.925768, -123.925773)" fill="none" stroke-linejoin="miter" d="M 156.482669 235.565344 L 257.365342 235.565344 L 257.365342 244.754678 L 156.482669 244.754678 Z M 156.482669 235.565344 " stroke="#364b9b" stroke-width="0.166" stroke-opacity="1" stroke-miterlimit="10"/><path stroke-linecap="butt" transform="matrix(1.464844, 0, 0, 1.464844, -123.925768, -123.925773)" fill="none" stroke-linejoin="miter" d="M 156.482669 244.754678 L 257.365342 244.754678 L 257.365342 253.944012 L 156.482669 253.944012 Z M 156.482669 244.754678 " stroke="#364b9b" stroke-width="0.166" stroke-opacity="1" stroke-miterlimit="10"/><path stroke-linecap="butt" transform="matrix(1.464844, 0, 0, 1.464844, -123.925768, -123.925773)" fill="none" stroke-linejoin="miter" d="M 225.874673 171.245339 L 257.365342 171.245339 L 257.365342 262.344012 L 225.874673 262.344012 Z M 225.874673 171.245339 " stroke="#364b9b" stroke-width="0.292" stroke-opacity="1" stroke-miterlimit="10"/><path fill="#54c0d3" d="M 108.15625 82.023438 L 149.792969 82.023438 L 149.792969 100.949219 L 108.15625 100.949219 Z M 108.15625 82.023438 " fill-opacity="1" fill-rule="nonzero"/><path fill="#6abce1" d="M 179.1875 73.320312 L 253.074219 73.320312 L 253.074219 79.753906 L 179.1875 79.753906 Z M 179.1875 73.320312 " fill-opacity="1" fill-rule="nonzero"/><path fill="#6abce1" d="M 105.296875 274.300781 L 253.074219 274.300781 L 253.074219 280.738281 L 105.296875 280.738281 Z M 105.296875 274.300781 " fill-opacity="1" fill-rule="nonzero"/><path fill="#6abce1" d="M 128.089844 284.140625 L 230.285156 284.140625 L 230.285156 290.578125 L 128.089844 290.578125 Z M 128.089844 284.140625 " fill-opacity="1" fill-rule="nonzero"/><path fill="#6abce1" d="M 192.5625 82.59375 L 253.074219 82.59375 L 253.074219 89.027344 L 192.5625 89.027344 Z M 192.5625 82.59375 " fill-opacity="1" fill-rule="nonzero"/><path fill="#6abce1" d="M 209.214844 92.054688 L 253.074219 92.054688 L 253.074219 98.488281 L 209.214844 98.488281 Z M 209.214844 92.054688 " fill-opacity="1" fill-rule="nonzero"/><path fill="#6abce1" d="M 230.007812 101.519531 L 253.074219 101.519531 L 253.074219 107.953125 L 230.007812 107.953125 Z M 230.007812 101.519531 " fill-opacity="1" fill-rule="nonzero"/></svg>