<!DOCTYPE svg PUBLIC "-//W3C//DTD SVG 1.1//EN" "http://www.w3.org/Graphics/SVG/1.1/DTD/svg11.dtd">
<!-- Uploaded to: SVG Repo, www.svgrepo.com, Transformed by: SVG Repo Mixer Tools -->
<svg fill="#000000" width="800px" height="800px" viewBox="0 0 24 24" id="roadmap-2" data-name="Flat Color" xmlns="http://www.w3.org/2000/svg" class="icon flat-color">
<g id="SVGRepo_bgCarrier" stroke-width="0"/>
<g id="SVGRepo_tracerCarrier" stroke-linecap="round" stroke-linejoin="round"/>
<g id="SVGRepo_iconCarrier">
<path id="secondary" d="M19,13H13V7a1,1,0,0,0-2,0v6H5a1,1,0,0,0-1,1v3a1,1,0,0,0,2,0V15H18v2a1,1,0,0,0,2,0V14A1,1,0,0,0,19,13Z" style="fill: #2ca9bc;"/>
<path id="primary" d="M8,17v4a1,1,0,0,1-1,1H3a1,1,0,0,1-1-1V17a1,1,0,0,1,1-1H7A1,1,0,0,1,8,17ZM16,3a1,1,0,0,0-1-1H9A1,1,0,0,0,8,3V7A1,1,0,0,0,9,8h6a1,1,0,0,0,1-1Zm-2,8H10a1,1,0,0,0-1,1v4a1,1,0,0,0,1,1h4a1,1,0,0,0,1-1V12A1,1,0,0,0,14,11Zm7,5H17a1,1,0,0,0-1,1v4a1,1,0,0,0,1,1h4a1,1,0,0,0,1-1V17A1,1,0,0,0,21,16Z" style="fill: #000000;"/>
</g>
</svg>