<svg xmlns="http://www.w3.org/2000/svg" xmlns:xlink="http://www.w3.org/1999/xlink" width="500" zoomAndPan="magnify" viewBox="0 0 375 354.749987" height="473" preserveAspectRatio="xMidYMid meet" version="1.0"><defs><clipPath id="3ec1c988cd"><path d="M 0.132812 0 L 374.867188 0 L 374.867188 354.5 L 0.132812 354.5 Z M 0.132812 0 " clip-rule="nonzero"/></clipPath><clipPath id="24faf81766"><path d="M 0.132812 0 L 307 0 L 307 354.5 L 0.132812 354.5 Z M 0.132812 0 " clip-rule="nonzero"/></clipPath><clipPath id="3b5a3acb61"><path d="M 203 40 L 374.867188 40 L 374.867188 213 L 203 213 Z M 203 40 " clip-rule="nonzero"/></clipPath><clipPath id="d190298baa"><path d="M 286 245 L 334 245 L 334 354.5 L 286 354.5 Z M 286 245 " clip-rule="nonzero"/></clipPath></defs><g clip-path="url(#3ec1c988cd)"><path fill="#3d348b" d="M 289.257812 40.902344 C 288.253906 40.902344 287.28125 41.019531 286.285156 41.054688 L 286.292969 20.453125 C 286.292969 9.15625 277.140625 0 265.851562 0 L 20.574219 0 C 9.285156 0 0.136719 9.15625 0.136719 20.453125 L 0.136719 330.640625 C 0.136719 343.816406 10.8125 354.5 23.980469 354.5 C 23.980469 354.5 296.96875 354.5 310.136719 354.5 C 323.308594 354.5 333.984375 343.816406 333.984375 330.640625 L 333.984375 259.058594 C 333.984375 251.523438 327.886719 245.421875 320.359375 245.421875 L 286.230469 245.421875 L 286.238281 212.066406 C 287.246094 212.101562 288.234375 212.214844 289.257812 212.214844 C 336.539062 212.214844 374.863281 173.867188 374.863281 126.5625 C 374.863281 79.25 336.539062 40.902344 289.257812 40.902344 Z M 289.257812 40.902344 " fill-opacity="1" fill-rule="nonzero"/></g><g clip-path="url(#24faf81766)"><path fill="#7678ed" d="M 306.730469 354.5 L 23.980469 354.5 C 10.832031 354.5 0.136719 343.796875 0.136719 330.640625 L 0.136719 20.453125 C 0.136719 9.136719 9.265625 0 20.574219 0 L 265.851562 0 C 277.164062 0 286.292969 9.136719 286.292969 20.453125 L 286.292969 40.972656 C 240.371094 42.539062 203.648438 80.308594 203.648438 126.527344 C 203.648438 150.183594 213.253906 171.589844 228.71875 187.136719 C 243.574219 201.929688 263.808594 211.40625 286.222656 212.15625 L 286.222656 334.046875 C 286.222656 339.707031 288.539062 344.820312 292.21875 348.5 C 295.96875 352.183594 301.078125 354.5 306.730469 354.5 Z M 306.730469 354.5 " fill-opacity="1" fill-rule="nonzero"/></g><path fill="#ffffff" d="M 41.015625 40.902344 L 109.148438 40.902344 L 109.148438 109.078125 L 41.015625 109.078125 Z M 41.015625 40.902344 " fill-opacity="1" fill-rule="nonzero"/><path fill="#3d348b" d="M 41.015625 143.164062 L 109.148438 143.164062 L 109.148438 211.335938 L 41.015625 211.335938 Z M 41.015625 143.164062 " fill-opacity="1" fill-rule="nonzero"/><path fill="#ffffff" d="M 197.71875 52.835938 L 137.382812 52.835938 C 134.5625 52.835938 132.273438 50.542969 132.273438 47.722656 C 132.273438 44.898438 134.5625 42.609375 137.382812 42.609375 L 197.71875 42.609375 C 200.539062 42.609375 202.828125 44.898438 202.828125 47.722656 C 202.828125 50.542969 200.539062 52.835938 197.71875 52.835938 Z M 197.71875 52.835938 " fill-opacity="1" fill-rule="nonzero"/><path fill="#ffffff" d="M 177.28125 93.738281 L 137.382812 93.738281 C 134.5625 93.738281 132.273438 91.449219 132.273438 88.625 C 132.273438 85.800781 134.5625 83.511719 137.382812 83.511719 L 177.28125 83.511719 C 180.101562 83.511719 182.390625 85.800781 182.390625 88.625 C 182.390625 91.449219 180.101562 93.738281 177.28125 93.738281 Z M 177.28125 93.738281 " fill-opacity="1" fill-rule="nonzero"/><path fill="#3d348b" d="M 177.28125 155.09375 L 137.382812 155.09375 C 134.5625 155.09375 132.273438 152.804688 132.273438 149.980469 C 132.273438 147.160156 134.5625 144.867188 137.382812 144.867188 L 177.28125 144.867188 C 180.101562 144.867188 182.390625 147.160156 182.390625 149.980469 C 182.390625 152.804688 180.101562 155.09375 177.28125 155.09375 Z M 177.28125 155.09375 " fill-opacity="1" fill-rule="nonzero"/><path fill="#3d348b" d="M 190.90625 195.996094 L 137.382812 195.996094 C 134.5625 195.996094 132.273438 193.707031 132.273438 190.882812 C 132.273438 188.0625 134.5625 185.773438 137.382812 185.773438 L 190.90625 185.773438 C 193.726562 185.773438 196.015625 188.0625 196.015625 190.882812 C 196.015625 193.707031 193.726562 195.996094 190.90625 195.996094 Z M 190.90625 195.996094 " fill-opacity="1" fill-rule="nonzero"/><path fill="#ffffff" d="M 245.414062 257.351562 L 137.382812 257.351562 C 134.5625 257.351562 132.273438 255.0625 132.273438 252.242188 C 132.273438 249.417969 134.5625 247.128906 137.382812 247.128906 L 245.414062 247.128906 C 248.234375 247.128906 250.523438 249.417969 250.523438 252.242188 C 250.523438 255.0625 248.234375 257.351562 245.414062 257.351562 Z M 245.414062 257.351562 " fill-opacity="1" fill-rule="nonzero"/><path fill="#ffffff" d="M 224.972656 298.257812 L 137.382812 298.257812 C 134.5625 298.257812 132.273438 295.964844 132.273438 293.144531 C 132.273438 290.320312 134.5625 288.03125 137.382812 288.03125 L 224.972656 288.03125 C 227.792969 288.03125 230.082031 290.320312 230.082031 293.144531 C 230.082031 295.964844 227.792969 298.257812 224.972656 298.257812 Z M 224.972656 298.257812 " fill-opacity="1" fill-rule="nonzero"/><path fill="#7678ed" d="M 68.269531 93.738281 C 66.960938 93.738281 65.652344 93.242188 64.65625 92.238281 L 51.03125 78.605469 C 49.035156 76.605469 49.035156 73.367188 51.03125 71.371094 C 53.027344 69.371094 56.261719 69.371094 58.257812 71.371094 L 68.273438 81.390625 L 91.917969 57.734375 C 93.914062 55.738281 97.148438 55.738281 99.144531 57.734375 C 101.140625 59.734375 101.140625 62.972656 99.144531 64.96875 L 71.894531 92.238281 C 70.882812 93.242188 69.574219 93.738281 68.269531 93.738281 Z M 68.269531 93.738281 " fill-opacity="1" fill-rule="nonzero"/><path fill="#ffffff" d="M 68.269531 195.996094 C 66.960938 195.996094 65.652344 195.5 64.65625 194.496094 L 51.03125 180.863281 C 49.035156 178.867188 49.035156 175.628906 51.03125 173.628906 C 53.027344 171.632812 56.261719 171.632812 58.257812 173.628906 L 68.273438 183.652344 L 91.917969 159.996094 C 93.914062 157.996094 97.148438 157.996094 99.144531 159.996094 C 101.140625 161.992188 101.140625 165.230469 99.144531 167.230469 L 71.894531 194.496094 C 70.882812 195.5 69.574219 195.996094 68.269531 195.996094 Z M 68.269531 195.996094 " fill-opacity="1" fill-rule="nonzero"/><path fill="#ffffff" d="M 41.015625 245.421875 L 109.148438 245.421875 L 109.148438 313.597656 L 41.015625 313.597656 Z M 41.015625 245.421875 " fill-opacity="1" fill-rule="nonzero"/><path fill="#7678ed" d="M 68.269531 298.257812 C 66.960938 298.257812 65.652344 297.757812 64.65625 296.757812 L 51.03125 283.121094 C 49.035156 281.125 49.035156 277.886719 51.03125 275.890625 C 53.027344 273.890625 56.261719 273.890625 58.257812 275.890625 L 68.273438 285.910156 L 91.917969 262.253906 C 93.914062 260.257812 97.148438 260.257812 99.144531 262.253906 C 101.140625 264.253906 101.140625 267.492188 99.144531 269.488281 L 71.894531 296.757812 C 70.882812 297.757812 69.574219 298.257812 68.269531 298.257812 Z M 68.269531 298.257812 " fill-opacity="1" fill-rule="nonzero"/><g clip-path="url(#3b5a3acb61)"><path fill="#3d348b" d="M 203.652344 126.5625 C 203.652344 79.25 241.980469 40.902344 289.257812 40.902344 C 336.539062 40.902344 374.863281 79.25 374.863281 126.5625 C 374.863281 173.867188 336.539062 212.222656 289.257812 212.222656 C 241.980469 212.214844 203.652344 173.867188 203.652344 126.5625 Z M 203.652344 126.5625 " fill-opacity="1" fill-rule="nonzero"/></g><path fill="#ffffff" d="M 251.246094 169.609375 L 251.246094 159.328125 C 251.246094 138.652344 268 121.886719 288.664062 121.886719 C 309.328125 121.886719 326.082031 138.652344 326.082031 159.328125 L 326.082031 169.609375 Z M 251.246094 169.609375 " fill-opacity="1" fill-rule="nonzero"/><path fill="#ffffff" d="M 264.871094 98.027344 C 264.871094 84.847656 275.546875 74.164062 288.71875 74.164062 C 301.886719 74.164062 312.5625 84.847656 312.5625 98.027344 C 312.5625 111.203125 301.886719 121.886719 288.71875 121.886719 C 275.546875 121.886719 264.871094 111.203125 264.871094 98.027344 Z M 264.871094 98.027344 " fill-opacity="1" fill-rule="nonzero"/><g clip-path="url(#d190298baa)"><path fill="#3d348b" d="M 310.136719 354.5 C 296.96875 354.5 286.292969 343.816406 286.292969 330.640625 L 286.292969 245.421875 L 320.359375 245.421875 C 327.886719 245.421875 333.984375 251.523438 333.984375 259.058594 L 333.984375 330.640625 C 333.984375 343.816406 323.308594 354.5 310.136719 354.5 Z M 310.136719 354.5 " fill-opacity="1" fill-rule="nonzero"/></g></svg>