<svg xmlns="http://www.w3.org/2000/svg" xmlns:xlink="http://www.w3.org/1999/xlink" width="500" zoomAndPan="magnify" viewBox="0 0 375 219.75" height="293" preserveAspectRatio="xMidYMid meet" version="1.0"><defs><clipPath id="67c9017af9"><path d="M 1 0 L 374.785156 0 L 374.785156 219.359375 L 1 219.359375 Z M 1 0 " clip-rule="nonzero"/></clipPath><clipPath id="ab73369650"><path d="M 187 0 L 374.785156 0 L 374.785156 219.359375 L 187 219.359375 Z M 187 0 " clip-rule="nonzero"/></clipPath></defs><g clip-path="url(#67c9017af9)"><path fill="#37a4dd" d="M 372.972656 114.167969 L 373.589844 113.328125 L 374.121094 112.273438 L 374.460938 111.078125 L 374.5625 109.78125 L 374.414062 108.554688 L 374.027344 107.363281 L 373.585938 106.511719 L 373 105.722656 C 312.082031 35.222656 250.554688 0.285156 188.902344 0.226562 C 127.285156 0.160156 65.050781 34.964844 2.691406 105.675781 C 0.558594 108.089844 0.539062 111.707031 2.652344 114.140625 C 63.851562 184.882812 125.519531 219.585938 187.171875 219.46875 C 248.789062 219.351562 310.878906 184.425781 372.945312 114.191406 Z M 372.972656 114.167969 " fill-opacity="1" fill-rule="evenodd"/></g><g clip-path="url(#ab73369650)"><path fill="#468fcc" d="M 187.820312 0.226562 L 187.820312 219.460938 C 249.226562 219.109375 311.097656 184.179688 372.945312 114.191406 L 372.972656 114.167969 L 373.589844 113.328125 L 374.121094 112.273438 L 374.460938 111.078125 L 374.5625 109.78125 L 374.414062 108.554688 L 374.027344 107.363281 L 373.585938 106.511719 L 373 105.722656 C 312.082031 35.222656 250.554688 0.285156 188.902344 0.226562 Z M 187.820312 0.226562 " fill-opacity="1" fill-rule="evenodd"/></g><path fill="#ededed" d="M 258.65625 109.929688 C 258.65625 111.089844 258.625 112.246094 258.570312 113.40625 C 258.511719 114.5625 258.425781 115.71875 258.3125 116.871094 C 258.199219 118.023438 258.058594 119.171875 257.886719 120.320312 C 257.71875 121.464844 257.519531 122.609375 257.292969 123.746094 C 257.066406 124.878906 256.8125 126.011719 256.53125 127.136719 C 256.25 128.257812 255.941406 129.375 255.605469 130.484375 C 255.269531 131.59375 254.90625 132.695312 254.515625 133.785156 C 254.125 134.875 253.707031 135.957031 253.261719 137.027344 C 252.820312 138.097656 252.347656 139.15625 251.855469 140.203125 C 251.359375 141.25 250.835938 142.285156 250.289062 143.308594 C 249.746094 144.332031 249.171875 145.339844 248.578125 146.332031 C 247.980469 147.328125 247.359375 148.304688 246.71875 149.269531 C 246.074219 150.230469 245.40625 151.179688 244.714844 152.109375 C 244.023438 153.039062 243.3125 153.953125 242.578125 154.851562 C 241.839844 155.746094 241.082031 156.625 240.304688 157.480469 C 239.527344 158.339844 238.726562 159.179688 237.90625 160 C 237.089844 160.816406 236.25 161.617188 235.390625 162.394531 C 234.53125 163.171875 233.652344 163.929688 232.757812 164.664062 C 231.863281 165.398438 230.949219 166.113281 230.015625 166.804688 C 229.085938 167.492188 228.136719 168.160156 227.175781 168.804688 C 226.210938 169.449219 225.230469 170.066406 224.238281 170.664062 C 223.242188 171.257812 222.234375 171.832031 221.210938 172.375 C 220.191406 172.921875 219.15625 173.441406 218.105469 173.9375 C 217.058594 174.433594 216 174.902344 214.929688 175.347656 C 213.855469 175.789062 212.777344 176.207031 211.683594 176.597656 C 210.59375 176.988281 209.492188 177.351562 208.382812 177.6875 C 207.273438 178.023438 206.15625 178.332031 205.03125 178.613281 C 203.90625 178.898438 202.777344 179.152344 201.640625 179.375 C 200.503906 179.601562 199.359375 179.800781 198.214844 179.972656 C 197.066406 180.140625 195.917969 180.28125 194.765625 180.394531 C 193.609375 180.511719 192.457031 180.59375 191.296875 180.652344 C 190.140625 180.707031 188.980469 180.738281 187.820312 180.738281 C 186.664062 180.738281 185.503906 180.707031 184.347656 180.652344 C 183.1875 180.59375 182.03125 180.511719 180.878906 180.394531 C 179.726562 180.28125 178.574219 180.140625 177.429688 179.972656 C 176.28125 179.800781 175.140625 179.601562 174.003906 179.375 C 172.867188 179.152344 171.734375 178.898438 170.609375 178.613281 C 169.484375 178.332031 168.371094 178.023438 167.261719 177.6875 C 166.152344 177.351562 165.050781 176.988281 163.957031 176.597656 C 162.867188 176.207031 161.785156 175.789062 160.714844 175.347656 C 159.644531 174.902344 158.585938 174.433594 157.535156 173.9375 C 156.488281 173.441406 155.453125 172.921875 154.429688 172.375 C 153.410156 171.832031 152.398438 171.257812 151.40625 170.664062 C 150.410156 170.066406 149.433594 169.449219 148.46875 168.804688 C 147.503906 168.160156 146.558594 167.492188 145.625 166.804688 C 144.695312 166.113281 143.78125 165.398438 142.886719 164.664062 C 141.988281 163.929688 141.113281 163.171875 140.253906 162.394531 C 139.394531 161.617188 138.554688 160.816406 137.734375 160 C 136.914062 159.179688 136.117188 158.339844 135.335938 157.480469 C 134.558594 156.625 133.800781 155.746094 133.066406 154.851562 C 132.332031 153.953125 131.617188 153.039062 130.929688 152.109375 C 130.238281 151.179688 129.570312 150.230469 128.925781 149.269531 C 128.28125 148.304688 127.664062 147.328125 127.066406 146.332031 C 126.46875 145.339844 125.898438 144.332031 125.351562 143.308594 C 124.804688 142.285156 124.285156 141.25 123.789062 140.203125 C 123.292969 139.15625 122.824219 138.097656 122.378906 137.027344 C 121.9375 135.957031 121.519531 134.875 121.128906 133.785156 C 120.738281 132.695312 120.375 131.59375 120.039062 130.484375 C 119.703125 129.375 119.394531 128.257812 119.109375 127.136719 C 118.828125 126.011719 118.574219 124.878906 118.347656 123.746094 C 118.125 122.609375 117.925781 121.464844 117.753906 120.320312 C 117.585938 119.171875 117.445312 118.023438 117.328125 116.871094 C 117.214844 115.71875 117.132812 114.5625 117.074219 113.40625 C 117.015625 112.246094 116.988281 111.089844 116.988281 109.929688 C 116.988281 108.773438 117.015625 107.613281 117.074219 106.457031 C 117.132812 105.300781 117.214844 104.144531 117.328125 102.992188 C 117.445312 101.835938 117.585938 100.6875 117.753906 99.542969 C 117.925781 98.394531 118.125 97.253906 118.347656 96.117188 C 118.574219 94.980469 118.828125 93.851562 119.109375 92.726562 C 119.394531 91.601562 119.703125 90.484375 120.039062 89.375 C 120.375 88.269531 120.738281 87.167969 121.128906 86.078125 C 121.519531 84.984375 121.9375 83.90625 122.378906 82.832031 C 122.824219 81.761719 123.292969 80.703125 123.789062 79.65625 C 124.285156 78.609375 124.804688 77.574219 125.351562 76.554688 C 125.898438 75.53125 126.46875 74.523438 127.066406 73.527344 C 127.664062 72.535156 128.28125 71.554688 128.925781 70.59375 C 129.570312 69.628906 130.238281 68.679688 130.929688 67.75 C 131.617188 66.820312 132.332031 65.90625 133.066406 65.011719 C 133.800781 64.117188 134.558594 63.238281 135.335938 62.378906 C 136.117188 61.523438 136.914062 60.683594 137.734375 59.863281 C 138.554688 59.042969 139.394531 58.246094 140.253906 57.464844 C 141.113281 56.6875 141.988281 55.933594 142.886719 55.195312 C 143.78125 54.460938 144.695312 53.75 145.625 53.058594 C 146.558594 52.367188 147.503906 51.703125 148.46875 51.058594 C 149.433594 50.414062 150.410156 49.792969 151.40625 49.199219 C 152.398438 48.601562 153.410156 48.03125 154.429688 47.484375 C 155.453125 46.9375 156.488281 46.417969 157.535156 45.921875 C 158.585938 45.425781 159.644531 44.957031 160.714844 44.515625 C 161.785156 44.070312 162.867188 43.652344 163.957031 43.265625 C 165.050781 42.875 166.148438 42.511719 167.261719 42.171875 C 168.371094 41.835938 169.484375 41.527344 170.609375 41.246094 C 171.734375 40.964844 172.867188 40.710938 174.003906 40.484375 C 175.140625 40.257812 176.28125 40.0625 177.429688 39.890625 C 178.574219 39.722656 179.726562 39.578125 180.878906 39.464844 C 182.03125 39.351562 183.1875 39.265625 184.347656 39.210938 C 185.503906 39.152344 186.664062 39.125 187.820312 39.125 C 188.980469 39.125 190.140625 39.152344 191.296875 39.210938 C 192.457031 39.265625 193.609375 39.351562 194.765625 39.464844 C 195.917969 39.578125 197.066406 39.722656 198.214844 39.890625 C 199.363281 40.0625 200.503906 40.257812 201.640625 40.484375 C 202.777344 40.710938 203.90625 40.964844 205.03125 41.246094 C 206.15625 41.527344 207.273438 41.835938 208.382812 42.171875 C 209.492188 42.511719 210.59375 42.875 211.683594 43.265625 C 212.777344 43.652344 213.855469 44.070312 214.929688 44.515625 C 216 44.957031 217.058594 45.425781 218.105469 45.921875 C 219.15625 46.417969 220.191406 46.9375 221.210938 47.484375 C 222.234375 48.03125 223.242188 48.601562 224.238281 49.199219 C 225.230469 49.792969 226.210938 50.414062 227.175781 51.058594 C 228.136719 51.703125 229.085938 52.367188 230.015625 53.058594 C 230.949219 53.75 231.863281 54.460938 232.757812 55.195312 C 233.652344 55.929688 234.53125 56.6875 235.390625 57.464844 C 236.25 58.246094 237.089844 59.042969 237.90625 59.863281 C 238.726562 60.683594 239.527344 61.523438 240.304688 62.378906 C 241.082031 63.238281 241.839844 64.117188 242.578125 65.011719 C 243.3125 65.90625 244.023438 66.820312 244.714844 67.75 C 245.40625 68.679688 246.074219 69.628906 246.71875 70.59375 C 247.359375 71.554688 247.980469 72.535156 248.578125 73.527344 C 249.171875 74.523438 249.746094 75.53125 250.289062 76.554688 C 250.835938 77.574219 251.359375 78.609375 251.855469 79.65625 C 252.347656 80.703125 252.820312 81.761719 253.261719 82.832031 C 253.707031 83.90625 254.125 84.984375 254.515625 86.078125 C 254.90625 87.167969 255.269531 88.265625 255.605469 89.375 C 255.941406 90.484375 256.25 91.601562 256.53125 92.726562 C 256.8125 93.851562 257.066406 94.980469 257.292969 96.117188 C 257.519531 97.253906 257.71875 98.394531 257.886719 99.542969 C 258.058594 100.6875 258.199219 101.835938 258.3125 102.992188 C 258.425781 104.144531 258.511719 105.300781 258.570312 106.457031 C 258.625 107.613281 258.65625 108.773438 258.65625 109.929688 Z M 258.65625 109.929688 " fill-opacity="1" fill-rule="nonzero"/><path fill="#e5e5e5" d="M 187.820312 39.125 L 187.820312 180.738281 C 226.914062 180.738281 258.65625 149.007812 258.65625 109.929688 C 258.65625 70.851562 226.914062 39.125 187.820312 39.125 Z M 187.820312 39.125 " fill-opacity="1" fill-rule="evenodd"/><path fill="#37a4dd" d="M 219.996094 109.910156 C 219.996094 110.964844 219.945312 112.015625 219.84375 113.066406 C 219.738281 114.113281 219.585938 115.15625 219.378906 116.1875 C 219.171875 117.222656 218.917969 118.242188 218.609375 119.253906 C 218.304688 120.261719 217.949219 121.253906 217.546875 122.226562 C 217.144531 123.199219 216.691406 124.152344 216.195312 125.082031 C 215.699219 126.011719 215.15625 126.914062 214.570312 127.789062 C 213.984375 128.667969 213.359375 129.511719 212.6875 130.328125 C 212.019531 131.140625 211.3125 131.921875 210.566406 132.667969 C 209.820312 133.414062 209.042969 134.121094 208.226562 134.789062 C 207.410156 135.457031 206.566406 136.085938 205.6875 136.671875 C 204.8125 137.257812 203.90625 137.796875 202.976562 138.292969 C 202.046875 138.789062 201.097656 139.242188 200.121094 139.644531 C 199.148438 140.046875 198.15625 140.402344 197.148438 140.707031 C 196.136719 141.015625 195.117188 141.269531 194.082031 141.476562 C 193.046875 141.683594 192.007812 141.835938 190.957031 141.941406 C 189.90625 142.042969 188.855469 142.09375 187.800781 142.09375 C 186.746094 142.09375 185.695312 142.042969 184.644531 141.941406 C 183.597656 141.835938 182.554688 141.683594 181.519531 141.476562 C 180.484375 141.269531 179.464844 141.015625 178.453125 140.707031 C 177.445312 140.402344 176.453125 140.046875 175.480469 139.644531 C 174.503906 139.242188 173.554688 138.789062 172.625 138.292969 C 171.695312 137.796875 170.789062 137.257812 169.914062 136.671875 C 169.035156 136.085938 168.191406 135.457031 167.375 134.789062 C 166.5625 134.121094 165.78125 133.414062 165.035156 132.667969 C 164.289062 131.921875 163.582031 131.140625 162.914062 130.328125 C 162.242188 129.511719 161.617188 128.667969 161.03125 127.789062 C 160.445312 126.914062 159.902344 126.011719 159.40625 125.082031 C 158.910156 124.152344 158.457031 123.199219 158.054688 122.226562 C 157.652344 121.253906 157.296875 120.261719 156.992188 119.253906 C 156.683594 118.242188 156.429688 117.222656 156.222656 116.1875 C 156.015625 115.15625 155.863281 114.113281 155.757812 113.066406 C 155.65625 112.015625 155.605469 110.964844 155.605469 109.910156 C 155.605469 108.855469 155.65625 107.804688 155.757812 106.753906 C 155.863281 105.707031 156.015625 104.664062 156.222656 103.632812 C 156.429688 102.597656 156.683594 101.574219 156.992188 100.566406 C 157.296875 99.558594 157.652344 98.566406 158.054688 97.59375 C 158.457031 96.621094 158.910156 95.667969 159.40625 94.738281 C 159.902344 93.808594 160.445312 92.90625 161.03125 92.027344 C 161.617188 91.152344 162.242188 90.308594 162.914062 89.492188 C 163.582031 88.675781 164.289062 87.898438 165.035156 87.152344 C 165.78125 86.40625 166.5625 85.699219 167.375 85.03125 C 168.191406 84.363281 169.035156 83.734375 169.914062 83.148438 C 170.789062 82.5625 171.695312 82.023438 172.625 81.527344 C 173.554688 81.027344 174.503906 80.578125 175.480469 80.175781 C 176.453125 79.773438 177.445312 79.417969 178.453125 79.113281 C 179.464844 78.804688 180.484375 78.550781 181.519531 78.34375 C 182.554688 78.136719 183.597656 77.984375 184.644531 77.882812 C 185.695312 77.777344 186.746094 77.726562 187.800781 77.726562 C 188.855469 77.726562 189.90625 77.777344 190.957031 77.882812 C 192.007812 77.984375 193.046875 78.136719 194.082031 78.34375 C 195.117188 78.550781 196.136719 78.804688 197.148438 79.113281 C 198.15625 79.417969 199.148438 79.773438 200.121094 80.175781 C 201.097656 80.578125 202.046875 81.027344 202.976562 81.527344 C 203.90625 82.023438 204.8125 82.5625 205.6875 83.148438 C 206.566406 83.734375 207.410156 84.363281 208.226562 85.03125 C 209.042969 85.699219 209.820312 86.40625 210.566406 87.152344 C 211.3125 87.898438 212.019531 88.675781 212.6875 89.492188 C 213.359375 90.308594 213.984375 91.152344 214.570312 92.027344 C 215.15625 92.90625 215.699219 93.808594 216.195312 94.738281 C 216.691406 95.667969 217.144531 96.621094 217.546875 97.59375 C 217.949219 98.566406 218.304688 99.558594 218.609375 100.566406 C 218.917969 101.574219 219.171875 102.597656 219.378906 103.632812 C 219.585938 104.664062 219.738281 105.707031 219.84375 106.753906 C 219.945312 107.804688 219.996094 108.855469 219.996094 109.910156 Z M 219.996094 109.910156 " fill-opacity="1" fill-rule="nonzero"/><path fill="#468fcc" d="M 187.820312 77.746094 L 187.820312 142.117188 C 205.59375 142.117188 220.019531 127.695312 220.019531 109.929688 C 220.019531 92.164062 205.59375 77.746094 187.820312 77.746094 Z M 187.820312 77.746094 " fill-opacity="1" fill-rule="evenodd"/></svg>